<svg xmlns="http://www.w3.org/2000/svg" version="1.1" xmlns:xlink="http://www.w3.org/1999/xlink" xmlns:svgjs="http://svgjs.com/svgjs" width="1440" height="560" preserveAspectRatio="none" viewBox="0 0 1440 560"><g mask="url(&quot;#SvgjsMask1094&quot;)" fill="none"><rect width="1440" height="560" x="0" y="0" fill="#0e2a47"></rect><path d="M-61.22 410.39L-61.22 410.39" stroke="rgba(36, 37, 130, 1)" stroke-width="1.5"></path><path d="M-61.22 410.39L-78.19 534.1" stroke="rgba(36, 37, 130, 1)" stroke-width="1.5"></path><path d="M-61.22 410.39L54.67 552.27" stroke="rgba(36, 37, 130, 1)" stroke-width="1.5"></path><path d="M-78.19 534.1L-78.19 534.1" stroke="rgba(36, 37, 130, 1)" stroke-width="1.5"></path><path d="M-78.19 534.1L54.67 552.27" stroke="rgba(36, 37, 130, 1)" stroke-width="1.5"></path><path d="M-78.19 534.1L-74.1 677.46" stroke="rgba(36, 37, 130, 1)" stroke-width="1.5"></path><path d="M-74.1 677.46L-74.1 677.46" stroke="rgba(36, 37, 130, 1)" stroke-width="1.5"></path><path d="M-74.1 677.46L69.69 660.14" stroke="rgba(36, 37, 130, 1)" stroke-width="1.5"></path><path d="M-74.1 677.46L54.67 552.27" stroke="rgba(36, 37, 130, 1)" stroke-width="1.5"></path><path d="M-74.1 677.46L-61.22 410.39" stroke="rgba(36, 37, 130, 1)" stroke-width="1.5"></path><path d="M-74.1 677.46L197.11 684.59" stroke="rgba(36, 37, 130, 1)" stroke-width="1.5"></path><path d="M54.67 552.27L54.67 552.27" stroke="rgba(36, 37, 130, 1)" stroke-width="1.5"></path><path d="M54.67 552.27L69.69 660.14" stroke="rgba(36, 37, 130, 1)" stroke-width="1.5"></path><path d="M54.67 552.27L208.99 506.25" stroke="rgba(36, 37, 130, 1)" stroke-width="1.5"></path><path d="M69.69 660.14L69.69 660.14" stroke="rgba(36, 37, 130, 1)" stroke-width="1.5"></path><path d="M69.69 660.14L197.11 684.59" stroke="rgba(36, 37, 130, 1)" stroke-width="1.5"></path><path d="M69.69 660.14L-78.19 534.1" stroke="rgba(36, 37, 130, 1)" stroke-width="1.5"></path><path d="M69.69 660.14L208.99 506.25" stroke="rgba(36, 37, 130, 1)" stroke-width="1.5"></path><path d="M220.67 370.35L220.67 370.35" stroke="rgba(36, 37, 130, 1)" stroke-width="1.5"></path><path d="M220.67 370.35L208.99 506.25" stroke="rgba(36, 37, 130, 1)" stroke-width="1.5"></path><path d="M220.67 370.35L357.75 360.16" stroke="rgba(36, 37, 130, 1)" stroke-width="1.5"></path><path d="M220.67 370.35L367.49 507.84" stroke="rgba(36, 37, 130, 1)" stroke-width="1.5"></path><path d="M220.67 370.35L54.67 552.27" stroke="rgba(36, 37, 130, 1)" stroke-width="1.5"></path><path d="M220.67 370.35L489.81 399.81" stroke="rgba(36, 37, 130, 1)" stroke-width="1.5"></path><path d="M220.67 370.35L-61.22 410.39" stroke="rgba(36, 37, 130, 1)" stroke-width="1.5"></path><path d="M208.99 506.25L208.99 506.25" stroke="rgba(36, 37, 130, 1)" stroke-width="1.5"></path><path d="M208.99 506.25L367.49 507.84" stroke="rgba(36, 37, 130, 1)" stroke-width="1.5"></path><path d="M197.11 684.59L197.11 684.59" stroke="rgba(36, 37, 130, 1)" stroke-width="1.5"></path><path d="M197.11 684.59L208.99 506.25" stroke="rgba(36, 37, 130, 1)" stroke-width="1.5"></path><path d="M357.75 360.16L357.75 360.16" stroke="rgba(36, 37, 130, 1)" stroke-width="1.5"></path><path d="M357.75 360.16L489.81 399.81" stroke="rgba(36, 37, 130, 1)" stroke-width="1.5"></path><path d="M357.75 360.16L367.49 507.84" stroke="rgba(36, 37, 130, 1)" stroke-width="1.5"></path><path d="M357.75 360.16L208.99 506.25" stroke="rgba(36, 37, 130, 1)" stroke-width="1.5"></path><path d="M357.75 360.16L519.99 502.11" stroke="rgba(36, 37, 130, 1)" stroke-width="1.5"></path><path d="M367.49 507.84L367.49 507.84" stroke="rgba(36, 37, 130, 1)" stroke-width="1.5"></path><path d="M367.49 507.84L519.99 502.11" stroke="rgba(36, 37, 130, 1)" stroke-width="1.5"></path><path d="M489.81 399.81L489.81 399.81" stroke="rgba(36, 37, 130, 1)" stroke-width="1.5"></path><path d="M489.81 399.81L519.99 502.11" stroke="rgba(36, 37, 130, 1)" stroke-width="1.5"></path><path d="M489.81 399.81L367.49 507.84" stroke="rgba(36, 37, 130, 1)" stroke-width="1.5"></path><path d="M519.99 502.11L519.99 502.11" stroke="rgba(36, 37, 130, 1)" stroke-width="1.5"></path><path d="M519.99 502.11L685.81 515.86" stroke="rgba(36, 37, 130, 1)" stroke-width="1.5"></path><path d="M519.99 502.11L509.28 691.35" stroke="rgba(36, 37, 130, 1)" stroke-width="1.5"></path><path d="M519.99 502.11L657.48 371.63" stroke="rgba(36, 37, 130, 1)" stroke-width="1.5"></path><path d="M509.28 691.35L509.28 691.35" stroke="rgba(36, 37, 130, 1)" stroke-width="1.5"></path><path d="M509.28 691.35L694.52 702.81" stroke="rgba(36, 37, 130, 1)" stroke-width="1.5"></path><path d="M702.29 202.33L702.29 202.33" stroke="rgba(36, 37, 130, 1)" stroke-width="1.5"></path><path d="M702.29 202.33L813.11 213.75" stroke="rgba(36, 37, 130, 1)" stroke-width="1.5"></path><path d="M702.29 202.33L657.48 371.63" stroke="rgba(36, 37, 130, 1)" stroke-width="1.5"></path><path d="M702.29 202.33L854.34 68.19" stroke="rgba(36, 37, 130, 1)" stroke-width="1.5"></path><path d="M702.29 202.33L800.11 393.2" stroke="rgba(36, 37, 130, 1)" stroke-width="1.5"></path><path d="M657.48 371.63L657.48 371.63" stroke="rgba(36, 37, 130, 1)" stroke-width="1.5"></path><path d="M657.48 371.63L800.11 393.2" stroke="rgba(36, 37, 130, 1)" stroke-width="1.5"></path><path d="M685.81 515.86L685.81 515.86" stroke="rgba(36, 37, 130, 1)" stroke-width="1.5"></path><path d="M685.81 515.86L657.48 371.63" stroke="rgba(36, 37, 130, 1)" stroke-width="1.5"></path><path d="M685.81 515.86L800.11 393.2" stroke="rgba(36, 37, 130, 1)" stroke-width="1.5"></path><path d="M685.81 515.86L861.19 510.42" stroke="rgba(36, 37, 130, 1)" stroke-width="1.5"></path><path d="M685.81 515.86L694.52 702.81" stroke="rgba(36, 37, 130, 1)" stroke-width="1.5"></path><path d="M694.52 702.81L694.52 702.81" stroke="rgba(36, 37, 130, 1)" stroke-width="1.5"></path><path d="M694.52 702.81L810.97 684.96" stroke="rgba(36, 37, 130, 1)" stroke-width="1.5"></path><path d="M694.52 702.81L861.19 510.42" stroke="rgba(36, 37, 130, 1)" stroke-width="1.5"></path><path d="M694.52 702.81L519.99 502.11" stroke="rgba(36, 37, 130, 1)" stroke-width="1.5"></path><path d="M694.52 702.81L977.48 640.82" stroke="rgba(36, 37, 130, 1)" stroke-width="1.5"></path><path d="M854.34 68.19L854.34 68.19" stroke="rgba(36, 37, 130, 1)" stroke-width="1.5"></path><path d="M854.34 68.19L1001.03 62.84" stroke="rgba(36, 37, 130, 1)" stroke-width="1.5"></path><path d="M813.11 213.75L813.11 213.75" stroke="rgba(36, 37, 130, 1)" stroke-width="1.5"></path><path d="M813.11 213.75L854.34 68.19" stroke="rgba(36, 37, 130, 1)" stroke-width="1.5"></path><path d="M813.11 213.75L960.18 259.55" stroke="rgba(36, 37, 130, 1)" stroke-width="1.5"></path><path d="M813.11 213.75L800.11 393.2" stroke="rgba(36, 37, 130, 1)" stroke-width="1.5"></path><path d="M800.11 393.2L800.11 393.2" stroke="rgba(36, 37, 130, 1)" stroke-width="1.5"></path><path d="M800.11 393.2L861.19 510.42" stroke="rgba(36, 37, 130, 1)" stroke-width="1.5"></path><path d="M861.19 510.42L861.19 510.42" stroke="rgba(36, 37, 130, 1)" stroke-width="1.5"></path><path d="M861.19 510.42L1001.41 512.59" stroke="rgba(36, 37, 130, 1)" stroke-width="1.5"></path><path d="M861.19 510.42L969.1 376.47" stroke="rgba(36, 37, 130, 1)" stroke-width="1.5"></path><path d="M861.19 510.42L977.48 640.82" stroke="rgba(36, 37, 130, 1)" stroke-width="1.5"></path><path d="M861.19 510.42L810.97 684.96" stroke="rgba(36, 37, 130, 1)" stroke-width="1.5"></path><path d="M810.97 684.96L810.97 684.96" stroke="rgba(36, 37, 130, 1)" stroke-width="1.5"></path><path d="M810.97 684.96L977.48 640.82" stroke="rgba(36, 37, 130, 1)" stroke-width="1.5"></path><path d="M810.97 684.96L685.81 515.86" stroke="rgba(36, 37, 130, 1)" stroke-width="1.5"></path><path d="M810.97 684.96L1001.41 512.59" stroke="rgba(36, 37, 130, 1)" stroke-width="1.5"></path><path d="M810.97 684.96L1094.57 647.47" stroke="rgba(36, 37, 130, 1)" stroke-width="1.5"></path><path d="M995.83 -82.75L995.83 -82.75" stroke="rgba(36, 37, 130, 1)" stroke-width="1.5"></path><path d="M995.83 -82.75L1108.02 -73.78" stroke="rgba(36, 37, 130, 1)" stroke-width="1.5"></path><path d="M995.83 -82.75L1001.03 62.84" stroke="rgba(36, 37, 130, 1)" stroke-width="1.5"></path><path d="M995.83 -82.75L1140.88 48.88" stroke="rgba(36, 37, 130, 1)" stroke-width="1.5"></path><path d="M995.83 -82.75L854.34 68.19" stroke="rgba(36, 37, 130, 1)" stroke-width="1.5"></path><path d="M1001.03 62.84L1001.03 62.84" stroke="rgba(36, 37, 130, 1)" stroke-width="1.5"></path><path d="M1001.03 62.84L1140.88 48.88" stroke="rgba(36, 37, 130, 1)" stroke-width="1.5"></path><path d="M1001.03 62.84L1108.02 -73.78" stroke="rgba(36, 37, 130, 1)" stroke-width="1.5"></path><path d="M1001.03 62.84L960.18 259.55" stroke="rgba(36, 37, 130, 1)" stroke-width="1.5"></path><path d="M1001.03 62.84L1161.18 196.6" stroke="rgba(36, 37, 130, 1)" stroke-width="1.5"></path><path d="M960.18 259.55L960.18 259.55" stroke="rgba(36, 37, 130, 1)" stroke-width="1.5"></path><path d="M960.18 259.55L969.1 376.47" stroke="rgba(36, 37, 130, 1)" stroke-width="1.5"></path><path d="M960.18 259.55L800.11 393.2" stroke="rgba(36, 37, 130, 1)" stroke-width="1.5"></path><path d="M969.1 376.47L969.1 376.47" stroke="rgba(36, 37, 130, 1)" stroke-width="1.5"></path><path d="M969.1 376.47L1001.41 512.59" stroke="rgba(36, 37, 130, 1)" stroke-width="1.5"></path><path d="M969.1 376.47L1138.37 371.47" stroke="rgba(36, 37, 130, 1)" stroke-width="1.5"></path><path d="M969.1 376.47L800.11 393.2" stroke="rgba(36, 37, 130, 1)" stroke-width="1.5"></path><path d="M969.1 376.47L813.11 213.75" stroke="rgba(36, 37, 130, 1)" stroke-width="1.5"></path><path d="M1001.41 512.59L1001.41 512.59" stroke="rgba(36, 37, 130, 1)" stroke-width="1.5"></path><path d="M1001.41 512.59L977.48 640.82" stroke="rgba(36, 37, 130, 1)" stroke-width="1.5"></path><path d="M1001.41 512.59L1133.6 556" stroke="rgba(36, 37, 130, 1)" stroke-width="1.5"></path><path d="M1001.41 512.59L1094.57 647.47" stroke="rgba(36, 37, 130, 1)" stroke-width="1.5"></path><path d="M1001.41 512.59L1138.37 371.47" stroke="rgba(36, 37, 130, 1)" stroke-width="1.5"></path><path d="M977.48 640.82L977.48 640.82" stroke="rgba(36, 37, 130, 1)" stroke-width="1.5"></path><path d="M977.48 640.82L1094.57 647.47" stroke="rgba(36, 37, 130, 1)" stroke-width="1.5"></path><path d="M977.48 640.82L1133.6 556" stroke="rgba(36, 37, 130, 1)" stroke-width="1.5"></path><path d="M1108.02 -73.78L1108.02 -73.78" stroke="rgba(36, 37, 130, 1)" stroke-width="1.5"></path><path d="M1108.02 -73.78L1140.88 48.88" stroke="rgba(36, 37, 130, 1)" stroke-width="1.5"></path><path d="M1108.02 -73.78L1281.55 -108.3" stroke="rgba(36, 37, 130, 1)" stroke-width="1.5"></path><path d="M1140.88 48.88L1140.88 48.88" stroke="rgba(36, 37, 130, 1)" stroke-width="1.5"></path><path d="M1140.88 48.88L1161.18 196.6" stroke="rgba(36, 37, 130, 1)" stroke-width="1.5"></path><path d="M1161.18 196.6L1161.18 196.6" stroke="rgba(36, 37, 130, 1)" stroke-width="1.5"></path><path d="M1161.18 196.6L1308.02 194.11" stroke="rgba(36, 37, 130, 1)" stroke-width="1.5"></path><path d="M1161.18 196.6L1138.37 371.47" stroke="rgba(36, 37, 130, 1)" stroke-width="1.5"></path><path d="M1161.18 196.6L1275.97 354.21" stroke="rgba(36, 37, 130, 1)" stroke-width="1.5"></path><path d="M1161.18 196.6L960.18 259.55" stroke="rgba(36, 37, 130, 1)" stroke-width="1.5"></path><path d="M1138.37 371.47L1138.37 371.47" stroke="rgba(36, 37, 130, 1)" stroke-width="1.5"></path><path d="M1138.37 371.47L1275.97 354.21" stroke="rgba(36, 37, 130, 1)" stroke-width="1.5"></path><path d="M1138.37 371.47L1254.66 498.72" stroke="rgba(36, 37, 130, 1)" stroke-width="1.5"></path><path d="M1138.37 371.47L1133.6 556" stroke="rgba(36, 37, 130, 1)" stroke-width="1.5"></path><path d="M1133.6 556L1133.6 556" stroke="rgba(36, 37, 130, 1)" stroke-width="1.5"></path><path d="M1133.6 556L1094.57 647.47" stroke="rgba(36, 37, 130, 1)" stroke-width="1.5"></path><path d="M1133.6 556L1254.66 498.72" stroke="rgba(36, 37, 130, 1)" stroke-width="1.5"></path><path d="M1094.57 647.47L1094.57 647.47" stroke="rgba(36, 37, 130, 1)" stroke-width="1.5"></path><path d="M1094.57 647.47L1283.64 710.4" stroke="rgba(36, 37, 130, 1)" stroke-width="1.5"></path><path d="M1094.57 647.47L1254.66 498.72" stroke="rgba(36, 37, 130, 1)" stroke-width="1.5"></path><path d="M1094.57 647.47L861.19 510.42" stroke="rgba(36, 37, 130, 1)" stroke-width="1.5"></path><path d="M1281.55 -108.3L1281.55 -108.3" stroke="rgba(36, 37, 130, 1)" stroke-width="1.5"></path><path d="M1281.55 -108.3L1140.88 48.88" stroke="rgba(36, 37, 130, 1)" stroke-width="1.5"></path><path d="M1281.55 -108.3L1438.25 86.61" stroke="rgba(36, 37, 130, 1)" stroke-width="1.5"></path><path d="M1281.55 -108.3L1546.78 -46.42" stroke="rgba(36, 37, 130, 1)" stroke-width="1.5"></path><path d="M1281.55 -108.3L995.83 -82.75" stroke="rgba(36, 37, 130, 1)" stroke-width="1.5"></path><path d="M1281.55 -108.3L1308.02 194.11" stroke="rgba(36, 37, 130, 1)" stroke-width="1.5"></path><path d="M1308.02 194.11L1308.02 194.11" stroke="rgba(36, 37, 130, 1)" stroke-width="1.5"></path><path d="M1308.02 194.11L1389.01 206.84" stroke="rgba(36, 37, 130, 1)" stroke-width="1.5"></path><path d="M1308.02 194.11L1275.97 354.21" stroke="rgba(36, 37, 130, 1)" stroke-width="1.5"></path><path d="M1275.97 354.21L1275.97 354.21" stroke="rgba(36, 37, 130, 1)" stroke-width="1.5"></path><path d="M1275.97 354.21L1254.66 498.72" stroke="rgba(36, 37, 130, 1)" stroke-width="1.5"></path><path d="M1254.66 498.72L1254.66 498.72" stroke="rgba(36, 37, 130, 1)" stroke-width="1.5"></path><path d="M1254.66 498.72L1458.3 556.91" stroke="rgba(36, 37, 130, 1)" stroke-width="1.5"></path><path d="M1283.64 710.4L1283.64 710.4" stroke="rgba(36, 37, 130, 1)" stroke-width="1.5"></path><path d="M1283.64 710.4L1438.02 702.12" stroke="rgba(36, 37, 130, 1)" stroke-width="1.5"></path><path d="M1283.64 710.4L1254.66 498.72" stroke="rgba(36, 37, 130, 1)" stroke-width="1.5"></path><path d="M1283.64 710.4L1133.6 556" stroke="rgba(36, 37, 130, 1)" stroke-width="1.5"></path><path d="M1283.64 710.4L1458.3 556.91" stroke="rgba(36, 37, 130, 1)" stroke-width="1.5"></path><path d="M1438.25 86.61L1438.25 86.61" stroke="rgba(36, 37, 130, 1)" stroke-width="1.5"></path><path d="M1438.25 86.61L1389.01 206.84" stroke="rgba(36, 37, 130, 1)" stroke-width="1.5"></path><path d="M1438.25 86.61L1604.62 94.3" stroke="rgba(36, 37, 130, 1)" stroke-width="1.5"></path><path d="M1389.01 206.84L1389.01 206.84" stroke="rgba(36, 37, 130, 1)" stroke-width="1.5"></path><path d="M1389.01 206.84L1562.13 243.47" stroke="rgba(36, 37, 130, 1)" stroke-width="1.5"></path><path d="M1449.22 409.41L1449.22 409.41" stroke="rgba(36, 37, 130, 1)" stroke-width="1.5"></path><path d="M1449.22 409.41L1547.97 346.96" stroke="rgba(36, 37, 130, 1)" stroke-width="1.5"></path><path d="M1458.3 556.91L1458.3 556.91" stroke="rgba(36, 37, 130, 1)" stroke-width="1.5"></path><path d="M1458.3 556.91L1544.48 507.72" stroke="rgba(36, 37, 130, 1)" stroke-width="1.5"></path><path d="M1458.3 556.91L1438.02 702.12" stroke="rgba(36, 37, 130, 1)" stroke-width="1.5"></path><path d="M1458.3 556.91L1449.22 409.41" stroke="rgba(36, 37, 130, 1)" stroke-width="1.5"></path><path d="M1438.02 702.12L1438.02 702.12" stroke="rgba(36, 37, 130, 1)" stroke-width="1.5"></path><path d="M1438.02 702.12L1570.56 673.76" stroke="rgba(36, 37, 130, 1)" stroke-width="1.5"></path><path d="M1546.78 -46.42L1546.78 -46.42" stroke="rgba(36, 37, 130, 1)" stroke-width="1.5"></path><path d="M1546.78 -46.42L1604.62 94.3" stroke="rgba(36, 37, 130, 1)" stroke-width="1.5"></path><path d="M1546.78 -46.42L1438.25 86.61" stroke="rgba(36, 37, 130, 1)" stroke-width="1.5"></path><path d="M1546.78 -46.42L1562.13 243.47" stroke="rgba(36, 37, 130, 1)" stroke-width="1.5"></path><path d="M1604.62 94.3L1604.62 94.3" stroke="rgba(36, 37, 130, 1)" stroke-width="1.5"></path><path d="M1604.62 94.3L1562.13 243.47" stroke="rgba(36, 37, 130, 1)" stroke-width="1.5"></path><path d="M1604.62 94.3L1389.01 206.84" stroke="rgba(36, 37, 130, 1)" stroke-width="1.5"></path><path d="M1562.13 243.47L1562.13 243.47" stroke="rgba(36, 37, 130, 1)" stroke-width="1.5"></path><path d="M1562.13 243.47L1547.97 346.96" stroke="rgba(36, 37, 130, 1)" stroke-width="1.5"></path><path d="M1547.97 346.96L1547.97 346.96" stroke="rgba(36, 37, 130, 1)" stroke-width="1.5"></path><path d="M1544.48 507.72L1544.48 507.72" stroke="rgba(36, 37, 130, 1)" stroke-width="1.5"></path><path d="M1544.48 507.72L1449.22 409.41" stroke="rgba(36, 37, 130, 1)" stroke-width="1.5"></path><path d="M1544.48 507.72L1547.97 346.96" stroke="rgba(36, 37, 130, 1)" stroke-width="1.5"></path><path d="M1544.48 507.72L1570.56 673.76" stroke="rgba(36, 37, 130, 1)" stroke-width="1.5"></path><path d="M1544.48 507.72L1438.02 702.12" stroke="rgba(36, 37, 130, 1)" stroke-width="1.5"></path><path d="M1544.48 507.72L1562.13 243.47" stroke="rgba(36, 37, 130, 1)" stroke-width="1.5"></path><path d="M1570.56 673.76L1570.56 673.76" stroke="rgba(36, 37, 130, 1)" stroke-width="1.5"></path><path d="M1570.56 673.76L1458.3 556.91" stroke="rgba(36, 37, 130, 1)" stroke-width="1.5"></path><path d="M1570.56 673.76L1283.64 710.4" stroke="rgba(36, 37, 130, 1)" stroke-width="1.5"></path><circle r="5" cx="-61.22" cy="410.39" fill="rgba(36, 37, 130, 1)"></circle><circle r="5" cx="-78.19" cy="534.1" fill="rgba(36, 37, 130, 1)"></circle><circle r="5" cx="-74.1" cy="677.46" fill="rgba(36, 37, 130, 1)"></circle><circle r="5" cx="54.67" cy="552.27" fill="rgba(36, 37, 130, 1)"></circle><circle r="5" cx="69.69" cy="660.14" fill="rgba(36, 37, 130, 1)"></circle><circle r="5" cx="220.67" cy="370.35" fill="rgba(36, 37, 130, 1)"></circle><circle r="5" cx="208.99" cy="506.25" fill="rgba(36, 37, 130, 1)"></circle><circle r="5" cx="197.11" cy="684.59" fill="rgba(36, 37, 130, 1)"></circle><circle r="5" cx="357.75" cy="360.16" fill="rgba(36, 37, 130, 1)"></circle><circle r="5" cx="367.49" cy="507.84" fill="rgba(36, 37, 130, 1)"></circle><circle r="5" cx="489.81" cy="399.81" fill="rgba(36, 37, 130, 1)"></circle><circle r="5" cx="519.99" cy="502.11" fill="rgba(36, 37, 130, 1)"></circle><circle r="5" cx="509.28" cy="691.35" fill="rgba(36, 37, 130, 1)"></circle><circle r="5" cx="702.29" cy="202.33" fill="rgba(36, 37, 130, 1)"></circle><circle r="5" cx="657.48" cy="371.63" fill="rgba(36, 37, 130, 1)"></circle><circle r="5" cx="685.81" cy="515.86" fill="rgba(36, 37, 130, 1)"></circle><circle r="5" cx="694.52" cy="702.81" fill="rgba(36, 37, 130, 1)"></circle><circle r="5" cx="854.34" cy="68.19" fill="rgba(36, 37, 130, 1)"></circle><circle r="5" cx="813.11" cy="213.75" fill="rgba(36, 37, 130, 1)"></circle><circle r="5" cx="800.11" cy="393.2" fill="rgba(36, 37, 130, 1)"></circle><circle r="5" cx="861.19" cy="510.42" fill="rgba(36, 37, 130, 1)"></circle><circle r="5" cx="810.97" cy="684.96" fill="rgba(36, 37, 130, 1)"></circle><circle r="5" cx="995.83" cy="-82.75" fill="rgba(36, 37, 130, 1)"></circle><circle r="5" cx="1001.03" cy="62.84" fill="rgba(36, 37, 130, 1)"></circle><circle r="5" cx="960.18" cy="259.55" fill="rgba(36, 37, 130, 1)"></circle><circle r="5" cx="969.1" cy="376.47" fill="rgba(36, 37, 130, 1)"></circle><circle r="5" cx="1001.41" cy="512.59" fill="rgba(36, 37, 130, 1)"></circle><circle r="5" cx="977.48" cy="640.82" fill="rgba(36, 37, 130, 1)"></circle><circle r="5" cx="1108.02" cy="-73.78" fill="rgba(36, 37, 130, 1)"></circle><circle r="5" cx="1140.88" cy="48.88" fill="rgba(36, 37, 130, 1)"></circle><circle r="5" cx="1161.18" cy="196.6" fill="rgba(36, 37, 130, 1)"></circle><circle r="5" cx="1138.37" cy="371.47" fill="rgba(36, 37, 130, 1)"></circle><circle r="5" cx="1133.6" cy="556" fill="rgba(36, 37, 130, 1)"></circle><circle r="5" cx="1094.57" cy="647.47" fill="rgba(36, 37, 130, 1)"></circle><circle r="5" cx="1281.55" cy="-108.3" fill="rgba(36, 37, 130, 1)"></circle><circle r="5" cx="1308.02" cy="194.11" fill="rgba(36, 37, 130, 1)"></circle><circle r="5" cx="1275.97" cy="354.21" fill="rgba(36, 37, 130, 1)"></circle><circle r="5" cx="1254.66" cy="498.72" fill="rgba(36, 37, 130, 1)"></circle><circle r="5" cx="1283.64" cy="710.4" fill="rgba(36, 37, 130, 1)"></circle><circle r="5" cx="1438.25" cy="86.61" fill="rgba(36, 37, 130, 1)"></circle><circle r="5" cx="1389.01" cy="206.84" fill="rgba(36, 37, 130, 1)"></circle><circle r="5" cx="1449.22" cy="409.41" fill="rgba(36, 37, 130, 1)"></circle><circle r="5" cx="1458.3" cy="556.91" fill="rgba(36, 37, 130, 1)"></circle><circle r="5" cx="1438.02" cy="702.12" fill="rgba(36, 37, 130, 1)"></circle><circle r="5" cx="1546.78" cy="-46.42" fill="rgba(36, 37, 130, 1)"></circle><circle r="5" cx="1604.62" cy="94.3" fill="rgba(36, 37, 130, 1)"></circle><circle r="5" cx="1562.13" cy="243.47" fill="rgba(36, 37, 130, 1)"></circle><circle r="5" cx="1547.97" cy="346.96" fill="rgba(36, 37, 130, 1)"></circle><circle r="5" cx="1544.48" cy="507.72" fill="rgba(36, 37, 130, 1)"></circle><circle r="5" cx="1570.56" cy="673.76" fill="rgba(36, 37, 130, 1)"></circle><path d="M671.1 371.37L671.1 371.37" stroke="hsl(246.10000000000002, 62.2%, 60.7%)" stroke-width="1.5"></path><path d="M671.1 371.37L678.31 520.27" stroke="hsl(246.10000000000002, 62.2%, 60.7%)" stroke-width="1.5"></path><path d="M671.1 371.37L826.38 397.66" stroke="hsl(246.10000000000002, 62.2%, 60.7%)" stroke-width="1.5"></path><path d="M671.1 371.37L802.95 506.83" stroke="hsl(246.10000000000002, 62.2%, 60.7%)" stroke-width="1.5"></path><path d="M671.1 371.37L651.93 649.8" stroke="hsl(246.10000000000002, 62.2%, 60.7%)" stroke-width="1.5"></path><path d="M671.1 371.37L982.97 368.38" stroke="hsl(246.10000000000002, 62.2%, 60.7%)" stroke-width="1.5"></path><path d="M671.1 371.37L790.11 668.61" stroke="hsl(246.10000000000002, 62.2%, 60.7%)" stroke-width="1.5"></path><path d="M826.38 397.66L826.38 397.66" stroke="hsl(246.10000000000002, 62.2%, 60.7%)" stroke-width="1.5"></path><path d="M826.38 397.66L802.95 506.83" stroke="hsl(246.10000000000002, 62.2%, 60.7%)" stroke-width="1.5"></path><path d="M826.38 397.66L982.97 368.38" stroke="hsl(246.10000000000002, 62.2%, 60.7%)" stroke-width="1.5"></path><path d="M1144.91 691.16L1144.91 691.16" stroke="hsl(246.10000000000002, 62.2%, 60.7%)" stroke-width="1.5"></path><path d="M1144.91 691.16L1266.69 673.82" stroke="hsl(246.10000000000002, 62.2%, 60.7%)" stroke-width="1.5"></path><path d="M1144.91 691.16L959.52 650.32" stroke="hsl(246.10000000000002, 62.2%, 60.7%)" stroke-width="1.5"></path><path d="M1144.91 691.16L1253.89 534.49" stroke="hsl(246.10000000000002, 62.2%, 60.7%)" stroke-width="1.5"></path><path d="M1144.91 691.16L994.7 499.51" stroke="hsl(246.10000000000002, 62.2%, 60.7%)" stroke-width="1.5"></path><path d="M1253.36 352.19L1253.36 352.19" stroke="hsl(246.10000000000002, 62.2%, 60.7%)" stroke-width="1.5"></path><path d="M1253.36 352.19L1284.22 258.69" stroke="hsl(246.10000000000002, 62.2%, 60.7%)" stroke-width="1.5"></path><path d="M1253.36 352.19L1113.42 404.95" stroke="hsl(246.10000000000002, 62.2%, 60.7%)" stroke-width="1.5"></path><path d="M1253.36 352.19L1404.84 260.47" stroke="hsl(246.10000000000002, 62.2%, 60.7%)" stroke-width="1.5"></path><path d="M1253.36 352.19L1253.89 534.49" stroke="hsl(246.10000000000002, 62.2%, 60.7%)" stroke-width="1.5"></path><path d="M1253.36 352.19L1141.88 189.22" stroke="hsl(246.10000000000002, 62.2%, 60.7%)" stroke-width="1.5"></path><path d="M1253.36 352.19L1407.55 529.6" stroke="hsl(246.10000000000002, 62.2%, 60.7%)" stroke-width="1.5"></path><path d="M1253.89 534.49L1253.89 534.49" stroke="hsl(246.10000000000002, 62.2%, 60.7%)" stroke-width="1.5"></path><path d="M1253.89 534.49L1266.69 673.82" stroke="hsl(246.10000000000002, 62.2%, 60.7%)" stroke-width="1.5"></path><path d="M1253.89 534.49L1407.55 529.6" stroke="hsl(246.10000000000002, 62.2%, 60.7%)" stroke-width="1.5"></path><path d="M1402.88 704.72L1402.88 704.72" stroke="hsl(246.10000000000002, 62.2%, 60.7%)" stroke-width="1.5"></path><path d="M1402.88 704.72L1266.69 673.82" stroke="hsl(246.10000000000002, 62.2%, 60.7%)" stroke-width="1.5"></path><path d="M1402.88 704.72L1407.55 529.6" stroke="hsl(246.10000000000002, 62.2%, 60.7%)" stroke-width="1.5"></path><path d="M1402.88 704.72L1594.2 690.11" stroke="hsl(246.10000000000002, 62.2%, 60.7%)" stroke-width="1.5"></path><path d="M1402.88 704.72L1253.89 534.49" stroke="hsl(246.10000000000002, 62.2%, 60.7%)" stroke-width="1.5"></path><path d="M1402.88 704.72L1144.91 691.16" stroke="hsl(246.10000000000002, 62.2%, 60.7%)" stroke-width="1.5"></path><path d="M1402.88 704.72L1560.68 498.78" stroke="hsl(246.10000000000002, 62.2%, 60.7%)" stroke-width="1.5"></path><path d="M1557.16 62.76L1557.16 62.76" stroke="hsl(246.10000000000002, 62.2%, 60.7%)" stroke-width="1.5"></path><path d="M1557.16 62.76L1558.6 -54.21" stroke="hsl(246.10000000000002, 62.2%, 60.7%)" stroke-width="1.5"></path><path d="M1557.16 62.76L1549.6 210.04" stroke="hsl(246.10000000000002, 62.2%, 60.7%)" stroke-width="1.5"></path><path d="M1557.16 62.76L1412.46 99.53" stroke="hsl(246.10000000000002, 62.2%, 60.7%)" stroke-width="1.5"></path><path d="M1557.16 62.76L1454.59 -98.37" stroke="hsl(246.10000000000002, 62.2%, 60.7%)" stroke-width="1.5"></path><path d="M-97.07 493.31L-97.07 493.31" stroke="hsl(246.10000000000002, 62.2%, 60.7%)" stroke-width="1.5"></path><path d="M-97.07 493.31L43.47 508.19" stroke="hsl(246.10000000000002, 62.2%, 60.7%)" stroke-width="1.5"></path><path d="M-97.07 493.31L211.13 491.34" stroke="hsl(246.10000000000002, 62.2%, 60.7%)" stroke-width="1.5"></path><path d="M-97.07 493.31L193.72 669.12" stroke="hsl(246.10000000000002, 62.2%, 60.7%)" stroke-width="1.5"></path><path d="M-97.07 493.31L352.23 516.17" stroke="hsl(246.10000000000002, 62.2%, 60.7%)" stroke-width="1.5"></path><path d="M43.47 508.19L43.47 508.19" stroke="hsl(246.10000000000002, 62.2%, 60.7%)" stroke-width="1.5"></path><path d="M43.47 508.19L211.13 491.34" stroke="hsl(246.10000000000002, 62.2%, 60.7%)" stroke-width="1.5"></path><path d="M43.47 508.19L193.72 669.12" stroke="hsl(246.10000000000002, 62.2%, 60.7%)" stroke-width="1.5"></path><path d="M43.47 508.19L352.23 516.17" stroke="hsl(246.10000000000002, 62.2%, 60.7%)" stroke-width="1.5"></path><path d="M211.13 491.34L211.13 491.34" stroke="hsl(246.10000000000002, 62.2%, 60.7%)" stroke-width="1.5"></path><path d="M211.13 491.34L352.23 516.17" stroke="hsl(246.10000000000002, 62.2%, 60.7%)" stroke-width="1.5"></path><path d="M211.13 491.34L193.72 669.12" stroke="hsl(246.10000000000002, 62.2%, 60.7%)" stroke-width="1.5"></path><path d="M211.13 491.34L379.18 696.25" stroke="hsl(246.10000000000002, 62.2%, 60.7%)" stroke-width="1.5"></path><path d="M193.72 669.12L193.72 669.12" stroke="hsl(246.10000000000002, 62.2%, 60.7%)" stroke-width="1.5"></path><path d="M193.72 669.12L379.18 696.25" stroke="hsl(246.10000000000002, 62.2%, 60.7%)" stroke-width="1.5"></path><path d="M193.72 669.12L352.23 516.17" stroke="hsl(246.10000000000002, 62.2%, 60.7%)" stroke-width="1.5"></path><path d="M193.72 669.12L547.86 691" stroke="hsl(246.10000000000002, 62.2%, 60.7%)" stroke-width="1.5"></path><path d="M352.23 516.17L352.23 516.17" stroke="hsl(246.10000000000002, 62.2%, 60.7%)" stroke-width="1.5"></path><path d="M352.23 516.17L379.18 696.25" stroke="hsl(246.10000000000002, 62.2%, 60.7%)" stroke-width="1.5"></path><path d="M379.18 696.25L379.18 696.25" stroke="hsl(246.10000000000002, 62.2%, 60.7%)" stroke-width="1.5"></path><path d="M379.18 696.25L547.86 691" stroke="hsl(246.10000000000002, 62.2%, 60.7%)" stroke-width="1.5"></path><path d="M379.18 696.25L651.93 649.8" stroke="hsl(246.10000000000002, 62.2%, 60.7%)" stroke-width="1.5"></path><path d="M547.86 691L547.86 691" stroke="hsl(246.10000000000002, 62.2%, 60.7%)" stroke-width="1.5"></path><path d="M547.86 691L651.93 649.8" stroke="hsl(246.10000000000002, 62.2%, 60.7%)" stroke-width="1.5"></path><path d="M547.86 691L678.31 520.27" stroke="hsl(246.10000000000002, 62.2%, 60.7%)" stroke-width="1.5"></path><path d="M547.86 691L790.11 668.61" stroke="hsl(246.10000000000002, 62.2%, 60.7%)" stroke-width="1.5"></path><path d="M547.86 691L352.23 516.17" stroke="hsl(246.10000000000002, 62.2%, 60.7%)" stroke-width="1.5"></path><path d="M547.86 691L802.95 506.83" stroke="hsl(246.10000000000002, 62.2%, 60.7%)" stroke-width="1.5"></path><path d="M678.31 520.27L678.31 520.27" stroke="hsl(246.10000000000002, 62.2%, 60.7%)" stroke-width="1.5"></path><path d="M678.31 520.27L802.95 506.83" stroke="hsl(246.10000000000002, 62.2%, 60.7%)" stroke-width="1.5"></path><path d="M678.31 520.27L651.93 649.8" stroke="hsl(246.10000000000002, 62.2%, 60.7%)" stroke-width="1.5"></path><path d="M678.31 520.27L790.11 668.61" stroke="hsl(246.10000000000002, 62.2%, 60.7%)" stroke-width="1.5"></path><path d="M678.31 520.27L826.38 397.66" stroke="hsl(246.10000000000002, 62.2%, 60.7%)" stroke-width="1.5"></path><path d="M651.93 649.8L651.93 649.8" stroke="hsl(246.10000000000002, 62.2%, 60.7%)" stroke-width="1.5"></path><path d="M651.93 649.8L790.11 668.61" stroke="hsl(246.10000000000002, 62.2%, 60.7%)" stroke-width="1.5"></path><path d="M651.93 649.8L802.95 506.83" stroke="hsl(246.10000000000002, 62.2%, 60.7%)" stroke-width="1.5"></path><path d="M802.95 506.83L802.95 506.83" stroke="hsl(246.10000000000002, 62.2%, 60.7%)" stroke-width="1.5"></path><path d="M802.95 506.83L790.11 668.61" stroke="hsl(246.10000000000002, 62.2%, 60.7%)" stroke-width="1.5"></path><path d="M790.11 668.61L790.11 668.61" stroke="hsl(246.10000000000002, 62.2%, 60.7%)" stroke-width="1.5"></path><path d="M790.11 668.61L959.52 650.32" stroke="hsl(246.10000000000002, 62.2%, 60.7%)" stroke-width="1.5"></path><path d="M790.11 668.61L994.7 499.51" stroke="hsl(246.10000000000002, 62.2%, 60.7%)" stroke-width="1.5"></path><path d="M982.97 368.38L982.97 368.38" stroke="hsl(246.10000000000002, 62.2%, 60.7%)" stroke-width="1.5"></path><path d="M982.97 368.38L994.7 499.51" stroke="hsl(246.10000000000002, 62.2%, 60.7%)" stroke-width="1.5"></path><path d="M982.97 368.38L1113.42 404.95" stroke="hsl(246.10000000000002, 62.2%, 60.7%)" stroke-width="1.5"></path><path d="M982.97 368.38L802.95 506.83" stroke="hsl(246.10000000000002, 62.2%, 60.7%)" stroke-width="1.5"></path><path d="M982.97 368.38L1141.88 189.22" stroke="hsl(246.10000000000002, 62.2%, 60.7%)" stroke-width="1.5"></path><path d="M982.97 368.38L1253.36 352.19" stroke="hsl(246.10000000000002, 62.2%, 60.7%)" stroke-width="1.5"></path><path d="M994.7 499.51L994.7 499.51" stroke="hsl(246.10000000000002, 62.2%, 60.7%)" stroke-width="1.5"></path><path d="M994.7 499.51L1113.42 404.95" stroke="hsl(246.10000000000002, 62.2%, 60.7%)" stroke-width="1.5"></path><path d="M994.7 499.51L959.52 650.32" stroke="hsl(246.10000000000002, 62.2%, 60.7%)" stroke-width="1.5"></path><path d="M994.7 499.51L802.95 506.83" stroke="hsl(246.10000000000002, 62.2%, 60.7%)" stroke-width="1.5"></path><path d="M994.7 499.51L826.38 397.66" stroke="hsl(246.10000000000002, 62.2%, 60.7%)" stroke-width="1.5"></path><path d="M959.52 650.32L959.52 650.32" stroke="hsl(246.10000000000002, 62.2%, 60.7%)" stroke-width="1.5"></path><path d="M1154.75 96.19L1154.75 96.19" stroke="hsl(246.10000000000002, 62.2%, 60.7%)" stroke-width="1.5"></path><path d="M1154.75 96.19L1141.88 189.22" stroke="hsl(246.10000000000002, 62.2%, 60.7%)" stroke-width="1.5"></path><path d="M1154.75 96.19L1246.84 -43.46" stroke="hsl(246.10000000000002, 62.2%, 60.7%)" stroke-width="1.5"></path><path d="M1154.75 96.19L1284.22 258.69" stroke="hsl(246.10000000000002, 62.2%, 60.7%)" stroke-width="1.5"></path><path d="M1154.75 96.19L1412.46 99.53" stroke="hsl(246.10000000000002, 62.2%, 60.7%)" stroke-width="1.5"></path><path d="M1154.75 96.19L1253.36 352.19" stroke="hsl(246.10000000000002, 62.2%, 60.7%)" stroke-width="1.5"></path><path d="M1154.75 96.19L1404.84 260.47" stroke="hsl(246.10000000000002, 62.2%, 60.7%)" stroke-width="1.5"></path><path d="M1141.88 189.22L1141.88 189.22" stroke="hsl(246.10000000000002, 62.2%, 60.7%)" stroke-width="1.5"></path><path d="M1141.88 189.22L1284.22 258.69" stroke="hsl(246.10000000000002, 62.2%, 60.7%)" stroke-width="1.5"></path><path d="M1141.88 189.22L1113.42 404.95" stroke="hsl(246.10000000000002, 62.2%, 60.7%)" stroke-width="1.5"></path><path d="M1113.42 404.95L1113.42 404.95" stroke="hsl(246.10000000000002, 62.2%, 60.7%)" stroke-width="1.5"></path><path d="M1113.42 404.95L1253.89 534.49" stroke="hsl(246.10000000000002, 62.2%, 60.7%)" stroke-width="1.5"></path><path d="M1246.84 -43.46L1246.84 -43.46" stroke="hsl(246.10000000000002, 62.2%, 60.7%)" stroke-width="1.5"></path><path d="M1246.84 -43.46L1454.59 -98.37" stroke="hsl(246.10000000000002, 62.2%, 60.7%)" stroke-width="1.5"></path><path d="M1284.22 258.69L1284.22 258.69" stroke="hsl(246.10000000000002, 62.2%, 60.7%)" stroke-width="1.5"></path><path d="M1284.22 258.69L1404.84 260.47" stroke="hsl(246.10000000000002, 62.2%, 60.7%)" stroke-width="1.5"></path><path d="M1284.22 258.69L1412.46 99.53" stroke="hsl(246.10000000000002, 62.2%, 60.7%)" stroke-width="1.5"></path><path d="M1284.22 258.69L1113.42 404.95" stroke="hsl(246.10000000000002, 62.2%, 60.7%)" stroke-width="1.5"></path><path d="M1266.69 673.82L1266.69 673.82" stroke="hsl(246.10000000000002, 62.2%, 60.7%)" stroke-width="1.5"></path><path d="M1266.69 673.82L1407.55 529.6" stroke="hsl(246.10000000000002, 62.2%, 60.7%)" stroke-width="1.5"></path><path d="M1266.69 673.82L959.52 650.32" stroke="hsl(246.10000000000002, 62.2%, 60.7%)" stroke-width="1.5"></path><path d="M1266.69 673.82L1113.42 404.95" stroke="hsl(246.10000000000002, 62.2%, 60.7%)" stroke-width="1.5"></path><path d="M1454.59 -98.37L1454.59 -98.37" stroke="hsl(246.10000000000002, 62.2%, 60.7%)" stroke-width="1.5"></path><path d="M1454.59 -98.37L1558.6 -54.21" stroke="hsl(246.10000000000002, 62.2%, 60.7%)" stroke-width="1.5"></path><path d="M1412.46 99.53L1412.46 99.53" stroke="hsl(246.10000000000002, 62.2%, 60.7%)" stroke-width="1.5"></path><path d="M1412.46 99.53L1404.84 260.47" stroke="hsl(246.10000000000002, 62.2%, 60.7%)" stroke-width="1.5"></path><path d="M1404.84 260.47L1404.84 260.47" stroke="hsl(246.10000000000002, 62.2%, 60.7%)" stroke-width="1.5"></path><path d="M1404.84 260.47L1549.6 210.04" stroke="hsl(246.10000000000002, 62.2%, 60.7%)" stroke-width="1.5"></path><path d="M1407.55 529.6L1407.55 529.6" stroke="hsl(246.10000000000002, 62.2%, 60.7%)" stroke-width="1.5"></path><path d="M1407.55 529.6L1560.68 498.78" stroke="hsl(246.10000000000002, 62.2%, 60.7%)" stroke-width="1.5"></path><path d="M1558.6 -54.21L1558.6 -54.21" stroke="hsl(246.10000000000002, 62.2%, 60.7%)" stroke-width="1.5"></path><path d="M1558.6 -54.21L1412.46 99.53" stroke="hsl(246.10000000000002, 62.2%, 60.7%)" stroke-width="1.5"></path><path d="M1558.6 -54.21L1549.6 210.04" stroke="hsl(246.10000000000002, 62.2%, 60.7%)" stroke-width="1.5"></path><path d="M1549.6 210.04L1549.6 210.04" stroke="hsl(246.10000000000002, 62.2%, 60.7%)" stroke-width="1.5"></path><path d="M1549.6 210.04L1412.46 99.53" stroke="hsl(246.10000000000002, 62.2%, 60.7%)" stroke-width="1.5"></path><path d="M1549.6 210.04L1577.51 406.94" stroke="hsl(246.10000000000002, 62.2%, 60.7%)" stroke-width="1.5"></path><path d="M1549.6 210.04L1284.22 258.69" stroke="hsl(246.10000000000002, 62.2%, 60.7%)" stroke-width="1.5"></path><path d="M1577.51 406.94L1577.51 406.94" stroke="hsl(246.10000000000002, 62.2%, 60.7%)" stroke-width="1.5"></path><path d="M1577.51 406.94L1560.68 498.78" stroke="hsl(246.10000000000002, 62.2%, 60.7%)" stroke-width="1.5"></path><path d="M1577.51 406.94L1407.55 529.6" stroke="hsl(246.10000000000002, 62.2%, 60.7%)" stroke-width="1.5"></path><path d="M1577.51 406.94L1404.84 260.47" stroke="hsl(246.10000000000002, 62.2%, 60.7%)" stroke-width="1.5"></path><path d="M1577.51 406.94L1594.2 690.11" stroke="hsl(246.10000000000002, 62.2%, 60.7%)" stroke-width="1.5"></path><path d="M1577.51 406.94L1284.22 258.69" stroke="hsl(246.10000000000002, 62.2%, 60.7%)" stroke-width="1.5"></path><path d="M1560.68 498.78L1560.68 498.78" stroke="hsl(246.10000000000002, 62.2%, 60.7%)" stroke-width="1.5"></path><path d="M1560.68 498.78L1594.2 690.11" stroke="hsl(246.10000000000002, 62.2%, 60.7%)" stroke-width="1.5"></path><path d="M1560.68 498.78L1404.84 260.47" stroke="hsl(246.10000000000002, 62.2%, 60.7%)" stroke-width="1.5"></path><path d="M1560.68 498.78L1549.6 210.04" stroke="hsl(246.10000000000002, 62.2%, 60.7%)" stroke-width="1.5"></path><path d="M1594.2 690.11L1594.2 690.11" stroke="hsl(246.10000000000002, 62.2%, 60.7%)" stroke-width="1.5"></path><path d="M1594.2 690.11L1407.55 529.6" stroke="hsl(246.10000000000002, 62.2%, 60.7%)" stroke-width="1.5"></path><circle r="25" cx="671.1" cy="371.37" fill="url(#SvgjsRadialGradient1095)"></circle><circle r="25" cx="826.38" cy="397.66" fill="url(#SvgjsRadialGradient1095)"></circle><circle r="25" cx="1144.91" cy="691.16" fill="url(#SvgjsRadialGradient1095)"></circle><circle r="25" cx="1253.36" cy="352.19" fill="url(#SvgjsRadialGradient1095)"></circle><circle r="25" cx="1253.89" cy="534.49" fill="url(#SvgjsRadialGradient1095)"></circle><circle r="25" cx="1402.88" cy="704.72" fill="url(#SvgjsRadialGradient1095)"></circle><circle r="25" cx="1557.16" cy="62.76" fill="url(#SvgjsRadialGradient1095)"></circle><circle r="5" cx="-97.07" cy="493.31" fill="#9e96e0"></circle><circle r="5" cx="43.47" cy="508.19" fill="#9e96e0"></circle><circle r="5" cx="211.13" cy="491.34" fill="#9e96e0"></circle><circle r="5" cx="193.72" cy="669.12" fill="#9e96e0"></circle><circle r="5" cx="352.23" cy="516.17" fill="#9e96e0"></circle><circle r="5" cx="379.18" cy="696.25" fill="#9e96e0"></circle><circle r="5" cx="547.86" cy="691" fill="#9e96e0"></circle><circle r="5" cx="678.31" cy="520.27" fill="#9e96e0"></circle><circle r="5" cx="651.93" cy="649.8" fill="#9e96e0"></circle><circle r="5" cx="802.95" cy="506.83" fill="#9e96e0"></circle><circle r="5" cx="790.11" cy="668.61" fill="#9e96e0"></circle><circle r="5" cx="982.97" cy="368.38" fill="#9e96e0"></circle><circle r="5" cx="994.7" cy="499.51" fill="#9e96e0"></circle><circle r="5" cx="959.52" cy="650.32" fill="#9e96e0"></circle><circle r="5" cx="1154.75" cy="96.19" fill="#9e96e0"></circle><circle r="5" cx="1141.88" cy="189.22" fill="#9e96e0"></circle><circle r="5" cx="1113.42" cy="404.95" fill="#9e96e0"></circle><circle r="5" cx="1246.84" cy="-43.46" fill="#9e96e0"></circle><circle r="5" cx="1284.22" cy="258.69" fill="#9e96e0"></circle><circle r="5" cx="1266.69" cy="673.82" fill="#9e96e0"></circle><circle r="5" cx="1454.59" cy="-98.37" fill="#9e96e0"></circle><circle r="5" cx="1412.46" cy="99.53" fill="#9e96e0"></circle><circle r="5" cx="1404.84" cy="260.47" fill="#9e96e0"></circle><circle r="5" cx="1407.55" cy="529.6" fill="#9e96e0"></circle><circle r="5" cx="1558.6" cy="-54.21" fill="#9e96e0"></circle><circle r="5" cx="1549.6" cy="210.04" fill="#9e96e0"></circle><circle r="5" cx="1577.51" cy="406.94" fill="#9e96e0"></circle><circle r="5" cx="1560.68" cy="498.78" fill="#9e96e0"></circle><circle r="5" cx="1594.2" cy="690.11" fill="#9e96e0"></circle></g><defs><mask id="SvgjsMask1094"><rect width="1440" height="560" fill="#ffffff"></rect></mask><radialGradient id="SvgjsRadialGradient1095"><stop stop-color="#ffffff" offset="0.1"></stop><stop stop-color="rgba(60, 45, 193, 1)" offset="0.2"></stop><stop stop-color="rgba(60, 45, 193, 0)" offset="1"></stop></radialGradient></defs></svg>