<svg xmlns="http://www.w3.org/2000/svg" version="1.1" xmlns:xlink="http://www.w3.org/1999/xlink" xmlns:svgjs="http://svgjs.com/svgjs" width="1440" height="560" preserveAspectRatio="none" viewBox="0 0 1440 560"><g mask="url(&quot;#SvgjsMask1038&quot;)" fill="none"><rect width="1440" height="560" x="0" y="0" fill="#0e2a47"></rect><path d="M-51.38 352.48L-51.38 352.48" stroke="rgba(36, 37, 130, 1)" stroke-width="1.5"></path><path d="M-51.38 352.48L-80.63 517.82" stroke="rgba(36, 37, 130, 1)" stroke-width="1.5"></path><path d="M-80.63 517.82L-80.63 517.82" stroke="rgba(36, 37, 130, 1)" stroke-width="1.5"></path><path d="M-80.63 517.82L-63.35 647.21" stroke="rgba(36, 37, 130, 1)" stroke-width="1.5"></path><path d="M-80.63 517.82L70.87 517.88" stroke="rgba(36, 37, 130, 1)" stroke-width="1.5"></path><path d="M-80.63 517.82L107.92 697.44" stroke="rgba(36, 37, 130, 1)" stroke-width="1.5"></path><path d="M-80.63 517.82L197.59 509.33" stroke="rgba(36, 37, 130, 1)" stroke-width="1.5"></path><path d="M-80.63 517.82L199.69 364.06" stroke="rgba(36, 37, 130, 1)" stroke-width="1.5"></path><path d="M-63.35 647.21L-63.35 647.21" stroke="rgba(36, 37, 130, 1)" stroke-width="1.5"></path><path d="M-63.35 647.21L107.92 697.44" stroke="rgba(36, 37, 130, 1)" stroke-width="1.5"></path><path d="M70.87 517.88L70.87 517.88" stroke="rgba(36, 37, 130, 1)" stroke-width="1.5"></path><path d="M70.87 517.88L197.59 509.33" stroke="rgba(36, 37, 130, 1)" stroke-width="1.5"></path><path d="M70.87 517.88L107.92 697.44" stroke="rgba(36, 37, 130, 1)" stroke-width="1.5"></path><path d="M70.87 517.88L-63.35 647.21" stroke="rgba(36, 37, 130, 1)" stroke-width="1.5"></path><path d="M70.87 517.88L199.69 364.06" stroke="rgba(36, 37, 130, 1)" stroke-width="1.5"></path><path d="M70.87 517.88L-51.38 352.48" stroke="rgba(36, 37, 130, 1)" stroke-width="1.5"></path><path d="M107.92 697.44L107.92 697.44" stroke="rgba(36, 37, 130, 1)" stroke-width="1.5"></path><path d="M107.92 697.44L240.4 705.14" stroke="rgba(36, 37, 130, 1)" stroke-width="1.5"></path><path d="M107.92 697.44L197.59 509.33" stroke="rgba(36, 37, 130, 1)" stroke-width="1.5"></path><path d="M107.92 697.44L385.09 663.89" stroke="rgba(36, 37, 130, 1)" stroke-width="1.5"></path><path d="M199.69 364.06L199.69 364.06" stroke="rgba(36, 37, 130, 1)" stroke-width="1.5"></path><path d="M199.69 364.06L197.59 509.33" stroke="rgba(36, 37, 130, 1)" stroke-width="1.5"></path><path d="M199.69 364.06L411.36 356.83" stroke="rgba(36, 37, 130, 1)" stroke-width="1.5"></path><path d="M199.69 364.06L-51.38 352.48" stroke="rgba(36, 37, 130, 1)" stroke-width="1.5"></path><path d="M197.59 509.33L197.59 509.33" stroke="rgba(36, 37, 130, 1)" stroke-width="1.5"></path><path d="M197.59 509.33L370.66 554.17" stroke="rgba(36, 37, 130, 1)" stroke-width="1.5"></path><path d="M197.59 509.33L240.4 705.14" stroke="rgba(36, 37, 130, 1)" stroke-width="1.5"></path><path d="M240.4 705.14L240.4 705.14" stroke="rgba(36, 37, 130, 1)" stroke-width="1.5"></path><path d="M240.4 705.14L385.09 663.89" stroke="rgba(36, 37, 130, 1)" stroke-width="1.5"></path><path d="M240.4 705.14L370.66 554.17" stroke="rgba(36, 37, 130, 1)" stroke-width="1.5"></path><path d="M411.36 356.83L411.36 356.83" stroke="rgba(36, 37, 130, 1)" stroke-width="1.5"></path><path d="M411.36 356.83L560.53 399.18" stroke="rgba(36, 37, 130, 1)" stroke-width="1.5"></path><path d="M411.36 356.83L370.66 554.17" stroke="rgba(36, 37, 130, 1)" stroke-width="1.5"></path><path d="M370.66 554.17L370.66 554.17" stroke="rgba(36, 37, 130, 1)" stroke-width="1.5"></path><path d="M370.66 554.17L385.09 663.89" stroke="rgba(36, 37, 130, 1)" stroke-width="1.5"></path><path d="M370.66 554.17L548.53 540.67" stroke="rgba(36, 37, 130, 1)" stroke-width="1.5"></path><path d="M385.09 663.89L385.09 663.89" stroke="rgba(36, 37, 130, 1)" stroke-width="1.5"></path><path d="M385.09 663.89L516.53 656.93" stroke="rgba(36, 37, 130, 1)" stroke-width="1.5"></path><path d="M385.09 663.89L548.53 540.67" stroke="rgba(36, 37, 130, 1)" stroke-width="1.5"></path><path d="M385.09 663.89L197.59 509.33" stroke="rgba(36, 37, 130, 1)" stroke-width="1.5"></path><path d="M560.53 399.18L560.53 399.18" stroke="rgba(36, 37, 130, 1)" stroke-width="1.5"></path><path d="M560.53 399.18L548.53 540.67" stroke="rgba(36, 37, 130, 1)" stroke-width="1.5"></path><path d="M560.53 399.18L706 405.37" stroke="rgba(36, 37, 130, 1)" stroke-width="1.5"></path><path d="M548.53 540.67L548.53 540.67" stroke="rgba(36, 37, 130, 1)" stroke-width="1.5"></path><path d="M548.53 540.67L516.53 656.93" stroke="rgba(36, 37, 130, 1)" stroke-width="1.5"></path><path d="M548.53 540.67L693.69 558.06" stroke="rgba(36, 37, 130, 1)" stroke-width="1.5"></path><path d="M548.53 540.67L672.12 669.86" stroke="rgba(36, 37, 130, 1)" stroke-width="1.5"></path><path d="M516.53 656.93L516.53 656.93" stroke="rgba(36, 37, 130, 1)" stroke-width="1.5"></path><path d="M516.53 656.93L672.12 669.86" stroke="rgba(36, 37, 130, 1)" stroke-width="1.5"></path><path d="M516.53 656.93L370.66 554.17" stroke="rgba(36, 37, 130, 1)" stroke-width="1.5"></path><path d="M516.53 656.93L693.69 558.06" stroke="rgba(36, 37, 130, 1)" stroke-width="1.5"></path><path d="M516.53 656.93L560.53 399.18" stroke="rgba(36, 37, 130, 1)" stroke-width="1.5"></path><path d="M706 405.37L706 405.37" stroke="rgba(36, 37, 130, 1)" stroke-width="1.5"></path><path d="M706 405.37L800.11 410.81" stroke="rgba(36, 37, 130, 1)" stroke-width="1.5"></path><path d="M706 405.37L693.69 558.06" stroke="rgba(36, 37, 130, 1)" stroke-width="1.5"></path><path d="M706 405.37L843.97 493.97" stroke="rgba(36, 37, 130, 1)" stroke-width="1.5"></path><path d="M693.69 558.06L693.69 558.06" stroke="rgba(36, 37, 130, 1)" stroke-width="1.5"></path><path d="M693.69 558.06L672.12 669.86" stroke="rgba(36, 37, 130, 1)" stroke-width="1.5"></path><path d="M672.12 669.86L672.12 669.86" stroke="rgba(36, 37, 130, 1)" stroke-width="1.5"></path><path d="M672.12 669.86L850.17 686.53" stroke="rgba(36, 37, 130, 1)" stroke-width="1.5"></path><path d="M672.12 669.86L843.97 493.97" stroke="rgba(36, 37, 130, 1)" stroke-width="1.5"></path><path d="M860.21 86.39L860.21 86.39" stroke="rgba(36, 37, 130, 1)" stroke-width="1.5"></path><path d="M860.21 86.39L968.65 45.92" stroke="rgba(36, 37, 130, 1)" stroke-width="1.5"></path><path d="M860.21 86.39L832.27 218.87" stroke="rgba(36, 37, 130, 1)" stroke-width="1.5"></path><path d="M860.21 86.39L979.24 -56.33" stroke="rgba(36, 37, 130, 1)" stroke-width="1.5"></path><path d="M860.21 86.39L982.43 258.94" stroke="rgba(36, 37, 130, 1)" stroke-width="1.5"></path><path d="M860.21 86.39L1091.8 226.84" stroke="rgba(36, 37, 130, 1)" stroke-width="1.5"></path><path d="M860.21 86.39L973.53 384.25" stroke="rgba(36, 37, 130, 1)" stroke-width="1.5"></path><path d="M832.27 218.87L832.27 218.87" stroke="rgba(36, 37, 130, 1)" stroke-width="1.5"></path><path d="M832.27 218.87L982.43 258.94" stroke="rgba(36, 37, 130, 1)" stroke-width="1.5"></path><path d="M800.11 410.81L800.11 410.81" stroke="rgba(36, 37, 130, 1)" stroke-width="1.5"></path><path d="M800.11 410.81L843.97 493.97" stroke="rgba(36, 37, 130, 1)" stroke-width="1.5"></path><path d="M800.11 410.81L973.53 384.25" stroke="rgba(36, 37, 130, 1)" stroke-width="1.5"></path><path d="M800.11 410.81L693.69 558.06" stroke="rgba(36, 37, 130, 1)" stroke-width="1.5"></path><path d="M843.97 493.97L843.97 493.97" stroke="rgba(36, 37, 130, 1)" stroke-width="1.5"></path><path d="M843.97 493.97L976.27 517.81" stroke="rgba(36, 37, 130, 1)" stroke-width="1.5"></path><path d="M843.97 493.97L693.69 558.06" stroke="rgba(36, 37, 130, 1)" stroke-width="1.5"></path><path d="M850.17 686.53L850.17 686.53" stroke="rgba(36, 37, 130, 1)" stroke-width="1.5"></path><path d="M850.17 686.53L1011.15 677.44" stroke="rgba(36, 37, 130, 1)" stroke-width="1.5"></path><path d="M979.24 -56.33L979.24 -56.33" stroke="rgba(36, 37, 130, 1)" stroke-width="1.5"></path><path d="M979.24 -56.33L968.65 45.92" stroke="rgba(36, 37, 130, 1)" stroke-width="1.5"></path><path d="M979.24 -56.33L1136.39 -90.21" stroke="rgba(36, 37, 130, 1)" stroke-width="1.5"></path><path d="M979.24 -56.33L1091.8 226.84" stroke="rgba(36, 37, 130, 1)" stroke-width="1.5"></path><path d="M979.24 -56.33L1289.05 -52.71" stroke="rgba(36, 37, 130, 1)" stroke-width="1.5"></path><path d="M979.24 -56.33L832.27 218.87" stroke="rgba(36, 37, 130, 1)" stroke-width="1.5"></path><path d="M968.65 45.92L968.65 45.92" stroke="rgba(36, 37, 130, 1)" stroke-width="1.5"></path><path d="M968.65 45.92L982.43 258.94" stroke="rgba(36, 37, 130, 1)" stroke-width="1.5"></path><path d="M968.65 45.92L1136.39 -90.21" stroke="rgba(36, 37, 130, 1)" stroke-width="1.5"></path><path d="M982.43 258.94L982.43 258.94" stroke="rgba(36, 37, 130, 1)" stroke-width="1.5"></path><path d="M982.43 258.94L1091.8 226.84" stroke="rgba(36, 37, 130, 1)" stroke-width="1.5"></path><path d="M982.43 258.94L973.53 384.25" stroke="rgba(36, 37, 130, 1)" stroke-width="1.5"></path><path d="M973.53 384.25L973.53 384.25" stroke="rgba(36, 37, 130, 1)" stroke-width="1.5"></path><path d="M973.53 384.25L976.27 517.81" stroke="rgba(36, 37, 130, 1)" stroke-width="1.5"></path><path d="M973.53 384.25L843.97 493.97" stroke="rgba(36, 37, 130, 1)" stroke-width="1.5"></path><path d="M973.53 384.25L1091.8 226.84" stroke="rgba(36, 37, 130, 1)" stroke-width="1.5"></path><path d="M976.27 517.81L976.27 517.81" stroke="rgba(36, 37, 130, 1)" stroke-width="1.5"></path><path d="M976.27 517.81L1121.75 541.11" stroke="rgba(36, 37, 130, 1)" stroke-width="1.5"></path><path d="M976.27 517.81L1011.15 677.44" stroke="rgba(36, 37, 130, 1)" stroke-width="1.5"></path><path d="M1011.15 677.44L1011.15 677.44" stroke="rgba(36, 37, 130, 1)" stroke-width="1.5"></path><path d="M1011.15 677.44L1138.43 701.16" stroke="rgba(36, 37, 130, 1)" stroke-width="1.5"></path><path d="M1136.39 -90.21L1136.39 -90.21" stroke="rgba(36, 37, 130, 1)" stroke-width="1.5"></path><path d="M1136.39 -90.21L1289.05 -52.71" stroke="rgba(36, 37, 130, 1)" stroke-width="1.5"></path><path d="M1091.8 226.84L1091.8 226.84" stroke="rgba(36, 37, 130, 1)" stroke-width="1.5"></path><path d="M1091.8 226.84L1244.34 210.88" stroke="rgba(36, 37, 130, 1)" stroke-width="1.5"></path><path d="M1091.8 226.84L1247.54 345.08" stroke="rgba(36, 37, 130, 1)" stroke-width="1.5"></path><path d="M1121.75 541.11L1121.75 541.11" stroke="rgba(36, 37, 130, 1)" stroke-width="1.5"></path><path d="M1121.75 541.11L1138.43 701.16" stroke="rgba(36, 37, 130, 1)" stroke-width="1.5"></path><path d="M1138.43 701.16L1138.43 701.16" stroke="rgba(36, 37, 130, 1)" stroke-width="1.5"></path><path d="M1289.05 -52.71L1289.05 -52.71" stroke="rgba(36, 37, 130, 1)" stroke-width="1.5"></path><path d="M1289.05 -52.71L1423.88 -55.25" stroke="rgba(36, 37, 130, 1)" stroke-width="1.5"></path><path d="M1289.05 -52.71L1282 100.13" stroke="rgba(36, 37, 130, 1)" stroke-width="1.5"></path><path d="M1289.05 -52.71L1438.57 110.66" stroke="rgba(36, 37, 130, 1)" stroke-width="1.5"></path><path d="M1289.05 -52.71L1546.36 -98.14" stroke="rgba(36, 37, 130, 1)" stroke-width="1.5"></path><path d="M1289.05 -52.71L1244.34 210.88" stroke="rgba(36, 37, 130, 1)" stroke-width="1.5"></path><path d="M1282 100.13L1282 100.13" stroke="rgba(36, 37, 130, 1)" stroke-width="1.5"></path><path d="M1282 100.13L1244.34 210.88" stroke="rgba(36, 37, 130, 1)" stroke-width="1.5"></path><path d="M1282 100.13L1438.57 110.66" stroke="rgba(36, 37, 130, 1)" stroke-width="1.5"></path><path d="M1282 100.13L1443.06 203.43" stroke="rgba(36, 37, 130, 1)" stroke-width="1.5"></path><path d="M1244.34 210.88L1244.34 210.88" stroke="rgba(36, 37, 130, 1)" stroke-width="1.5"></path><path d="M1244.34 210.88L1247.54 345.08" stroke="rgba(36, 37, 130, 1)" stroke-width="1.5"></path><path d="M1244.34 210.88L1443.06 203.43" stroke="rgba(36, 37, 130, 1)" stroke-width="1.5"></path><path d="M1244.34 210.88L1438.57 110.66" stroke="rgba(36, 37, 130, 1)" stroke-width="1.5"></path><path d="M1247.54 345.08L1247.54 345.08" stroke="rgba(36, 37, 130, 1)" stroke-width="1.5"></path><path d="M1247.54 345.08L1411.39 353.35" stroke="rgba(36, 37, 130, 1)" stroke-width="1.5"></path><path d="M1247.54 345.08L1312.07 508.99" stroke="rgba(36, 37, 130, 1)" stroke-width="1.5"></path><path d="M1247.54 345.08L1121.75 541.11" stroke="rgba(36, 37, 130, 1)" stroke-width="1.5"></path><path d="M1247.54 345.08L1443.06 203.43" stroke="rgba(36, 37, 130, 1)" stroke-width="1.5"></path><path d="M1312.07 508.99L1312.07 508.99" stroke="rgba(36, 37, 130, 1)" stroke-width="1.5"></path><path d="M1312.07 508.99L1445.64 533.56" stroke="rgba(36, 37, 130, 1)" stroke-width="1.5"></path><path d="M1312.07 508.99L1389.48 666.56" stroke="rgba(36, 37, 130, 1)" stroke-width="1.5"></path><path d="M1312.07 508.99L1411.39 353.35" stroke="rgba(36, 37, 130, 1)" stroke-width="1.5"></path><path d="M1312.07 508.99L1121.75 541.11" stroke="rgba(36, 37, 130, 1)" stroke-width="1.5"></path><path d="M1423.88 -55.25L1423.88 -55.25" stroke="rgba(36, 37, 130, 1)" stroke-width="1.5"></path><path d="M1423.88 -55.25L1546.36 -98.14" stroke="rgba(36, 37, 130, 1)" stroke-width="1.5"></path><path d="M1423.88 -55.25L1438.57 110.66" stroke="rgba(36, 37, 130, 1)" stroke-width="1.5"></path><path d="M1423.88 -55.25L1282 100.13" stroke="rgba(36, 37, 130, 1)" stroke-width="1.5"></path><path d="M1438.57 110.66L1438.57 110.66" stroke="rgba(36, 37, 130, 1)" stroke-width="1.5"></path><path d="M1438.57 110.66L1443.06 203.43" stroke="rgba(36, 37, 130, 1)" stroke-width="1.5"></path><path d="M1438.57 110.66L1581.04 85.16" stroke="rgba(36, 37, 130, 1)" stroke-width="1.5"></path><path d="M1438.57 110.66L1591.75 194.2" stroke="rgba(36, 37, 130, 1)" stroke-width="1.5"></path><path d="M1443.06 203.43L1443.06 203.43" stroke="rgba(36, 37, 130, 1)" stroke-width="1.5"></path><path d="M1411.39 353.35L1411.39 353.35" stroke="rgba(36, 37, 130, 1)" stroke-width="1.5"></path><path d="M1411.39 353.35L1560.13 359.48" stroke="rgba(36, 37, 130, 1)" stroke-width="1.5"></path><path d="M1411.39 353.35L1443.06 203.43" stroke="rgba(36, 37, 130, 1)" stroke-width="1.5"></path><path d="M1411.39 353.35L1445.64 533.56" stroke="rgba(36, 37, 130, 1)" stroke-width="1.5"></path><path d="M1411.39 353.35L1244.34 210.88" stroke="rgba(36, 37, 130, 1)" stroke-width="1.5"></path><path d="M1445.64 533.56L1445.64 533.56" stroke="rgba(36, 37, 130, 1)" stroke-width="1.5"></path><path d="M1445.64 533.56L1567.7 538.5" stroke="rgba(36, 37, 130, 1)" stroke-width="1.5"></path><path d="M1445.64 533.56L1389.48 666.56" stroke="rgba(36, 37, 130, 1)" stroke-width="1.5"></path><path d="M1389.48 666.56L1389.48 666.56" stroke="rgba(36, 37, 130, 1)" stroke-width="1.5"></path><path d="M1389.48 666.56L1583.73 662.66" stroke="rgba(36, 37, 130, 1)" stroke-width="1.5"></path><path d="M1546.36 -98.14L1546.36 -98.14" stroke="rgba(36, 37, 130, 1)" stroke-width="1.5"></path><path d="M1546.36 -98.14L1581.04 85.16" stroke="rgba(36, 37, 130, 1)" stroke-width="1.5"></path><path d="M1546.36 -98.14L1438.57 110.66" stroke="rgba(36, 37, 130, 1)" stroke-width="1.5"></path><path d="M1546.36 -98.14L1591.75 194.2" stroke="rgba(36, 37, 130, 1)" stroke-width="1.5"></path><path d="M1546.36 -98.14L1443.06 203.43" stroke="rgba(36, 37, 130, 1)" stroke-width="1.5"></path><path d="M1581.04 85.16L1581.04 85.16" stroke="rgba(36, 37, 130, 1)" stroke-width="1.5"></path><path d="M1581.04 85.16L1591.75 194.2" stroke="rgba(36, 37, 130, 1)" stroke-width="1.5"></path><path d="M1581.04 85.16L1443.06 203.43" stroke="rgba(36, 37, 130, 1)" stroke-width="1.5"></path><path d="M1591.75 194.2L1591.75 194.2" stroke="rgba(36, 37, 130, 1)" stroke-width="1.5"></path><path d="M1591.75 194.2L1443.06 203.43" stroke="rgba(36, 37, 130, 1)" stroke-width="1.5"></path><path d="M1560.13 359.48L1560.13 359.48" stroke="rgba(36, 37, 130, 1)" stroke-width="1.5"></path><path d="M1560.13 359.48L1591.75 194.2" stroke="rgba(36, 37, 130, 1)" stroke-width="1.5"></path><path d="M1560.13 359.48L1567.7 538.5" stroke="rgba(36, 37, 130, 1)" stroke-width="1.5"></path><path d="M1567.7 538.5L1567.7 538.5" stroke="rgba(36, 37, 130, 1)" stroke-width="1.5"></path><path d="M1567.7 538.5L1583.73 662.66" stroke="rgba(36, 37, 130, 1)" stroke-width="1.5"></path><path d="M1567.7 538.5L1389.48 666.56" stroke="rgba(36, 37, 130, 1)" stroke-width="1.5"></path><path d="M1567.7 538.5L1411.39 353.35" stroke="rgba(36, 37, 130, 1)" stroke-width="1.5"></path><path d="M1567.7 538.5L1312.07 508.99" stroke="rgba(36, 37, 130, 1)" stroke-width="1.5"></path><path d="M1583.73 662.66L1583.73 662.66" stroke="rgba(36, 37, 130, 1)" stroke-width="1.5"></path><path d="M1583.73 662.66L1445.64 533.56" stroke="rgba(36, 37, 130, 1)" stroke-width="1.5"></path><path d="M1583.73 662.66L1560.13 359.48" stroke="rgba(36, 37, 130, 1)" stroke-width="1.5"></path><circle r="5" cx="-51.38" cy="352.48" fill="rgba(36, 37, 130, 1)"></circle><circle r="5" cx="-80.63" cy="517.82" fill="rgba(36, 37, 130, 1)"></circle><circle r="5" cx="-63.35" cy="647.21" fill="rgba(36, 37, 130, 1)"></circle><circle r="5" cx="70.87" cy="517.88" fill="rgba(36, 37, 130, 1)"></circle><circle r="5" cx="107.92" cy="697.44" fill="rgba(36, 37, 130, 1)"></circle><circle r="5" cx="199.69" cy="364.06" fill="rgba(36, 37, 130, 1)"></circle><circle r="5" cx="197.59" cy="509.33" fill="rgba(36, 37, 130, 1)"></circle><circle r="5" cx="240.4" cy="705.14" fill="rgba(36, 37, 130, 1)"></circle><circle r="5" cx="411.36" cy="356.83" fill="rgba(36, 37, 130, 1)"></circle><circle r="5" cx="370.66" cy="554.17" fill="rgba(36, 37, 130, 1)"></circle><circle r="5" cx="385.09" cy="663.89" fill="rgba(36, 37, 130, 1)"></circle><circle r="5" cx="560.53" cy="399.18" fill="rgba(36, 37, 130, 1)"></circle><circle r="5" cx="548.53" cy="540.67" fill="rgba(36, 37, 130, 1)"></circle><circle r="5" cx="516.53" cy="656.93" fill="rgba(36, 37, 130, 1)"></circle><circle r="5" cx="706" cy="405.37" fill="rgba(36, 37, 130, 1)"></circle><circle r="5" cx="693.69" cy="558.06" fill="rgba(36, 37, 130, 1)"></circle><circle r="5" cx="672.12" cy="669.86" fill="rgba(36, 37, 130, 1)"></circle><circle r="5" cx="860.21" cy="86.39" fill="rgba(36, 37, 130, 1)"></circle><circle r="5" cx="832.27" cy="218.87" fill="rgba(36, 37, 130, 1)"></circle><circle r="5" cx="800.11" cy="410.81" fill="rgba(36, 37, 130, 1)"></circle><circle r="5" cx="843.97" cy="493.97" fill="rgba(36, 37, 130, 1)"></circle><circle r="5" cx="850.17" cy="686.53" fill="rgba(36, 37, 130, 1)"></circle><circle r="5" cx="979.24" cy="-56.33" fill="rgba(36, 37, 130, 1)"></circle><circle r="5" cx="968.65" cy="45.92" fill="rgba(36, 37, 130, 1)"></circle><circle r="5" cx="982.43" cy="258.94" fill="rgba(36, 37, 130, 1)"></circle><circle r="5" cx="973.53" cy="384.25" fill="rgba(36, 37, 130, 1)"></circle><circle r="5" cx="976.27" cy="517.81" fill="rgba(36, 37, 130, 1)"></circle><circle r="5" cx="1011.15" cy="677.44" fill="rgba(36, 37, 130, 1)"></circle><circle r="5" cx="1136.39" cy="-90.21" fill="rgba(36, 37, 130, 1)"></circle><circle r="5" cx="1091.8" cy="226.84" fill="rgba(36, 37, 130, 1)"></circle><circle r="5" cx="1121.75" cy="541.11" fill="rgba(36, 37, 130, 1)"></circle><circle r="5" cx="1138.43" cy="701.16" fill="rgba(36, 37, 130, 1)"></circle><circle r="5" cx="1289.05" cy="-52.71" fill="rgba(36, 37, 130, 1)"></circle><circle r="5" cx="1282" cy="100.13" fill="rgba(36, 37, 130, 1)"></circle><circle r="5" cx="1244.34" cy="210.88" fill="rgba(36, 37, 130, 1)"></circle><circle r="5" cx="1247.54" cy="345.08" fill="rgba(36, 37, 130, 1)"></circle><circle r="5" cx="1312.07" cy="508.99" fill="rgba(36, 37, 130, 1)"></circle><circle r="5" cx="1423.88" cy="-55.25" fill="rgba(36, 37, 130, 1)"></circle><circle r="5" cx="1438.57" cy="110.66" fill="rgba(36, 37, 130, 1)"></circle><circle r="5" cx="1443.06" cy="203.43" fill="rgba(36, 37, 130, 1)"></circle><circle r="5" cx="1411.39" cy="353.35" fill="rgba(36, 37, 130, 1)"></circle><circle r="5" cx="1445.64" cy="533.56" fill="rgba(36, 37, 130, 1)"></circle><circle r="5" cx="1389.48" cy="666.56" fill="rgba(36, 37, 130, 1)"></circle><circle r="5" cx="1546.36" cy="-98.14" fill="rgba(36, 37, 130, 1)"></circle><circle r="5" cx="1581.04" cy="85.16" fill="rgba(36, 37, 130, 1)"></circle><circle r="5" cx="1591.75" cy="194.2" fill="rgba(36, 37, 130, 1)"></circle><circle r="5" cx="1560.13" cy="359.48" fill="rgba(36, 37, 130, 1)"></circle><circle r="5" cx="1567.7" cy="538.5" fill="rgba(36, 37, 130, 1)"></circle><circle r="5" cx="1583.73" cy="662.66" fill="rgba(36, 37, 130, 1)"></circle><path d="M82.79 533.86L82.79 533.86" stroke="hsl(246.10000000000002, 62.2%, 60.7%)" stroke-width="1.5"></path><path d="M82.79 533.86L225.71 509.28" stroke="hsl(246.10000000000002, 62.2%, 60.7%)" stroke-width="1.5"></path><path d="M82.79 533.86L110.22 704.99" stroke="hsl(246.10000000000002, 62.2%, 60.7%)" stroke-width="1.5"></path><path d="M82.79 533.86L-107.07 501.21" stroke="hsl(246.10000000000002, 62.2%, 60.7%)" stroke-width="1.5"></path><path d="M82.79 533.86L230.5 689.79" stroke="hsl(246.10000000000002, 62.2%, 60.7%)" stroke-width="1.5"></path><path d="M82.79 533.86L393.11 554.72" stroke="hsl(246.10000000000002, 62.2%, 60.7%)" stroke-width="1.5"></path><path d="M82.79 533.86L388.16 708.69" stroke="hsl(246.10000000000002, 62.2%, 60.7%)" stroke-width="1.5"></path><path d="M393.11 554.72L393.11 554.72" stroke="hsl(246.10000000000002, 62.2%, 60.7%)" stroke-width="1.5"></path><path d="M393.11 554.72L509.56 555.35" stroke="hsl(246.10000000000002, 62.2%, 60.7%)" stroke-width="1.5"></path><path d="M393.11 554.72L388.16 708.69" stroke="hsl(246.10000000000002, 62.2%, 60.7%)" stroke-width="1.5"></path><path d="M393.11 554.72L516.12 664.62" stroke="hsl(246.10000000000002, 62.2%, 60.7%)" stroke-width="1.5"></path><path d="M1131.54 348.36L1131.54 348.36" stroke="hsl(246.10000000000002, 62.2%, 60.7%)" stroke-width="1.5"></path><path d="M1131.54 348.36L1123 249.25" stroke="hsl(246.10000000000002, 62.2%, 60.7%)" stroke-width="1.5"></path><path d="M1131.54 348.36L980.54 362.72" stroke="hsl(246.10000000000002, 62.2%, 60.7%)" stroke-width="1.5"></path><path d="M1131.54 348.36L1309.15 350.55" stroke="hsl(246.10000000000002, 62.2%, 60.7%)" stroke-width="1.5"></path><path d="M1131.54 348.36L1095.09 532.03" stroke="hsl(246.10000000000002, 62.2%, 60.7%)" stroke-width="1.5"></path><path d="M1131.54 348.36L1304.49 239.29" stroke="hsl(246.10000000000002, 62.2%, 60.7%)" stroke-width="1.5"></path><path d="M1131.54 348.36L1260.66 535.79" stroke="hsl(246.10000000000002, 62.2%, 60.7%)" stroke-width="1.5"></path><path d="M1283.64 -101.22L1283.64 -101.22" stroke="hsl(246.10000000000002, 62.2%, 60.7%)" stroke-width="1.5"></path><path d="M1283.64 -101.22L1440.66 -86.79" stroke="hsl(246.10000000000002, 62.2%, 60.7%)" stroke-width="1.5"></path><path d="M1283.64 -101.22L1299.76 72.34" stroke="hsl(246.10000000000002, 62.2%, 60.7%)" stroke-width="1.5"></path><path d="M1260.66 535.79L1260.66 535.79" stroke="hsl(246.10000000000002, 62.2%, 60.7%)" stroke-width="1.5"></path><path d="M1260.66 535.79L1282.13 663.56" stroke="hsl(246.10000000000002, 62.2%, 60.7%)" stroke-width="1.5"></path><path d="M1260.66 535.79L1095.09 532.03" stroke="hsl(246.10000000000002, 62.2%, 60.7%)" stroke-width="1.5"></path><path d="M1260.66 535.79L1440.81 491.49" stroke="hsl(246.10000000000002, 62.2%, 60.7%)" stroke-width="1.5"></path><path d="M1440.81 491.49L1440.81 491.49" stroke="hsl(246.10000000000002, 62.2%, 60.7%)" stroke-width="1.5"></path><path d="M1440.81 491.49L1435.76 388.42" stroke="hsl(246.10000000000002, 62.2%, 60.7%)" stroke-width="1.5"></path><path d="M1440.81 491.49L1610.77 407.63" stroke="hsl(246.10000000000002, 62.2%, 60.7%)" stroke-width="1.5"></path><path d="M1440.81 491.49L1309.15 350.55" stroke="hsl(246.10000000000002, 62.2%, 60.7%)" stroke-width="1.5"></path><path d="M1440.81 491.49L1282.13 663.56" stroke="hsl(246.10000000000002, 62.2%, 60.7%)" stroke-width="1.5"></path><path d="M1588.54 -55.46L1588.54 -55.46" stroke="hsl(246.10000000000002, 62.2%, 60.7%)" stroke-width="1.5"></path><path d="M1588.54 -55.46L1572.53 75.15" stroke="hsl(246.10000000000002, 62.2%, 60.7%)" stroke-width="1.5"></path><path d="M1588.54 -55.46L1440.66 -86.79" stroke="hsl(246.10000000000002, 62.2%, 60.7%)" stroke-width="1.5"></path><path d="M1588.54 -55.46L1430.57 87.65" stroke="hsl(246.10000000000002, 62.2%, 60.7%)" stroke-width="1.5"></path><path d="M1563.08 703.34L1563.08 703.34" stroke="hsl(246.10000000000002, 62.2%, 60.7%)" stroke-width="1.5"></path><path d="M1563.08 703.34L1440.81 491.49" stroke="hsl(246.10000000000002, 62.2%, 60.7%)" stroke-width="1.5"></path><path d="M1563.08 703.34L1282.13 663.56" stroke="hsl(246.10000000000002, 62.2%, 60.7%)" stroke-width="1.5"></path><path d="M1563.08 703.34L1610.77 407.63" stroke="hsl(246.10000000000002, 62.2%, 60.7%)" stroke-width="1.5"></path><path d="M1563.08 703.34L1435.76 388.42" stroke="hsl(246.10000000000002, 62.2%, 60.7%)" stroke-width="1.5"></path><path d="M1563.08 703.34L1260.66 535.79" stroke="hsl(246.10000000000002, 62.2%, 60.7%)" stroke-width="1.5"></path><path d="M1563.08 703.34L1309.15 350.55" stroke="hsl(246.10000000000002, 62.2%, 60.7%)" stroke-width="1.5"></path><path d="M-107.07 501.21L-107.07 501.21" stroke="hsl(246.10000000000002, 62.2%, 60.7%)" stroke-width="1.5"></path><path d="M-107.07 501.21L110.22 704.99" stroke="hsl(246.10000000000002, 62.2%, 60.7%)" stroke-width="1.5"></path><path d="M-107.07 501.21L225.71 509.28" stroke="hsl(246.10000000000002, 62.2%, 60.7%)" stroke-width="1.5"></path><path d="M110.22 704.99L110.22 704.99" stroke="hsl(246.10000000000002, 62.2%, 60.7%)" stroke-width="1.5"></path><path d="M110.22 704.99L230.5 689.79" stroke="hsl(246.10000000000002, 62.2%, 60.7%)" stroke-width="1.5"></path><path d="M110.22 704.99L225.71 509.28" stroke="hsl(246.10000000000002, 62.2%, 60.7%)" stroke-width="1.5"></path><path d="M110.22 704.99L388.16 708.69" stroke="hsl(246.10000000000002, 62.2%, 60.7%)" stroke-width="1.5"></path><path d="M225.71 509.28L225.71 509.28" stroke="hsl(246.10000000000002, 62.2%, 60.7%)" stroke-width="1.5"></path><path d="M225.71 509.28L393.11 554.72" stroke="hsl(246.10000000000002, 62.2%, 60.7%)" stroke-width="1.5"></path><path d="M225.71 509.28L230.5 689.79" stroke="hsl(246.10000000000002, 62.2%, 60.7%)" stroke-width="1.5"></path><path d="M225.71 509.28L388.16 708.69" stroke="hsl(246.10000000000002, 62.2%, 60.7%)" stroke-width="1.5"></path><path d="M230.5 689.79L230.5 689.79" stroke="hsl(246.10000000000002, 62.2%, 60.7%)" stroke-width="1.5"></path><path d="M230.5 689.79L388.16 708.69" stroke="hsl(246.10000000000002, 62.2%, 60.7%)" stroke-width="1.5"></path><path d="M388.16 708.69L388.16 708.69" stroke="hsl(246.10000000000002, 62.2%, 60.7%)" stroke-width="1.5"></path><path d="M388.16 708.69L516.12 664.62" stroke="hsl(246.10000000000002, 62.2%, 60.7%)" stroke-width="1.5"></path><path d="M388.16 708.69L509.56 555.35" stroke="hsl(246.10000000000002, 62.2%, 60.7%)" stroke-width="1.5"></path><path d="M509.56 555.35L509.56 555.35" stroke="hsl(246.10000000000002, 62.2%, 60.7%)" stroke-width="1.5"></path><path d="M509.56 555.35L516.12 664.62" stroke="hsl(246.10000000000002, 62.2%, 60.7%)" stroke-width="1.5"></path><path d="M509.56 555.35L647.49 502.65" stroke="hsl(246.10000000000002, 62.2%, 60.7%)" stroke-width="1.5"></path><path d="M516.12 664.62L516.12 664.62" stroke="hsl(246.10000000000002, 62.2%, 60.7%)" stroke-width="1.5"></path><path d="M658.74 378.45L658.74 378.45" stroke="hsl(246.10000000000002, 62.2%, 60.7%)" stroke-width="1.5"></path><path d="M658.74 378.45L647.49 502.65" stroke="hsl(246.10000000000002, 62.2%, 60.7%)" stroke-width="1.5"></path><path d="M658.74 378.45L820.6 520.87" stroke="hsl(246.10000000000002, 62.2%, 60.7%)" stroke-width="1.5"></path><path d="M658.74 378.45L509.56 555.35" stroke="hsl(246.10000000000002, 62.2%, 60.7%)" stroke-width="1.5"></path><path d="M658.74 378.45L393.11 554.72" stroke="hsl(246.10000000000002, 62.2%, 60.7%)" stroke-width="1.5"></path><path d="M647.49 502.65L647.49 502.65" stroke="hsl(246.10000000000002, 62.2%, 60.7%)" stroke-width="1.5"></path><path d="M820.6 520.87L820.6 520.87" stroke="hsl(246.10000000000002, 62.2%, 60.7%)" stroke-width="1.5"></path><path d="M820.6 520.87L647.49 502.65" stroke="hsl(246.10000000000002, 62.2%, 60.7%)" stroke-width="1.5"></path><path d="M820.6 520.87L808.73 707.86" stroke="hsl(246.10000000000002, 62.2%, 60.7%)" stroke-width="1.5"></path><path d="M808.73 707.86L808.73 707.86" stroke="hsl(246.10000000000002, 62.2%, 60.7%)" stroke-width="1.5"></path><path d="M808.73 707.86L1004.62 656.29" stroke="hsl(246.10000000000002, 62.2%, 60.7%)" stroke-width="1.5"></path><path d="M808.73 707.86L647.49 502.65" stroke="hsl(246.10000000000002, 62.2%, 60.7%)" stroke-width="1.5"></path><path d="M808.73 707.86L516.12 664.62" stroke="hsl(246.10000000000002, 62.2%, 60.7%)" stroke-width="1.5"></path><path d="M980.54 362.72L980.54 362.72" stroke="hsl(246.10000000000002, 62.2%, 60.7%)" stroke-width="1.5"></path><path d="M980.54 362.72L1123 249.25" stroke="hsl(246.10000000000002, 62.2%, 60.7%)" stroke-width="1.5"></path><path d="M980.54 362.72L1095.09 532.03" stroke="hsl(246.10000000000002, 62.2%, 60.7%)" stroke-width="1.5"></path><path d="M980.54 362.72L820.6 520.87" stroke="hsl(246.10000000000002, 62.2%, 60.7%)" stroke-width="1.5"></path><path d="M980.54 362.72L1004.62 656.29" stroke="hsl(246.10000000000002, 62.2%, 60.7%)" stroke-width="1.5"></path><path d="M980.54 362.72L658.74 378.45" stroke="hsl(246.10000000000002, 62.2%, 60.7%)" stroke-width="1.5"></path><path d="M1004.62 656.29L1004.62 656.29" stroke="hsl(246.10000000000002, 62.2%, 60.7%)" stroke-width="1.5"></path><path d="M1004.62 656.29L1103.41 668.24" stroke="hsl(246.10000000000002, 62.2%, 60.7%)" stroke-width="1.5"></path><path d="M1123 249.25L1123 249.25" stroke="hsl(246.10000000000002, 62.2%, 60.7%)" stroke-width="1.5"></path><path d="M1123 249.25L1304.49 239.29" stroke="hsl(246.10000000000002, 62.2%, 60.7%)" stroke-width="1.5"></path><path d="M1123 249.25L1309.15 350.55" stroke="hsl(246.10000000000002, 62.2%, 60.7%)" stroke-width="1.5"></path><path d="M1095.09 532.03L1095.09 532.03" stroke="hsl(246.10000000000002, 62.2%, 60.7%)" stroke-width="1.5"></path><path d="M1095.09 532.03L1103.41 668.24" stroke="hsl(246.10000000000002, 62.2%, 60.7%)" stroke-width="1.5"></path><path d="M1095.09 532.03L1004.62 656.29" stroke="hsl(246.10000000000002, 62.2%, 60.7%)" stroke-width="1.5"></path><path d="M1103.41 668.24L1103.41 668.24" stroke="hsl(246.10000000000002, 62.2%, 60.7%)" stroke-width="1.5"></path><path d="M1299.76 72.34L1299.76 72.34" stroke="hsl(246.10000000000002, 62.2%, 60.7%)" stroke-width="1.5"></path><path d="M1299.76 72.34L1430.57 87.65" stroke="hsl(246.10000000000002, 62.2%, 60.7%)" stroke-width="1.5"></path><path d="M1304.49 239.29L1304.49 239.29" stroke="hsl(246.10000000000002, 62.2%, 60.7%)" stroke-width="1.5"></path><path d="M1304.49 239.29L1309.15 350.55" stroke="hsl(246.10000000000002, 62.2%, 60.7%)" stroke-width="1.5"></path><path d="M1304.49 239.29L1456.01 223.97" stroke="hsl(246.10000000000002, 62.2%, 60.7%)" stroke-width="1.5"></path><path d="M1304.49 239.29L1299.76 72.34" stroke="hsl(246.10000000000002, 62.2%, 60.7%)" stroke-width="1.5"></path><path d="M1304.49 239.29L1430.57 87.65" stroke="hsl(246.10000000000002, 62.2%, 60.7%)" stroke-width="1.5"></path><path d="M1309.15 350.55L1309.15 350.55" stroke="hsl(246.10000000000002, 62.2%, 60.7%)" stroke-width="1.5"></path><path d="M1309.15 350.55L1435.76 388.42" stroke="hsl(246.10000000000002, 62.2%, 60.7%)" stroke-width="1.5"></path><path d="M1309.15 350.55L1260.66 535.79" stroke="hsl(246.10000000000002, 62.2%, 60.7%)" stroke-width="1.5"></path><path d="M1309.15 350.55L1456.01 223.97" stroke="hsl(246.10000000000002, 62.2%, 60.7%)" stroke-width="1.5"></path><path d="M1282.13 663.56L1282.13 663.56" stroke="hsl(246.10000000000002, 62.2%, 60.7%)" stroke-width="1.5"></path><path d="M1282.13 663.56L1103.41 668.24" stroke="hsl(246.10000000000002, 62.2%, 60.7%)" stroke-width="1.5"></path><path d="M1282.13 663.56L1095.09 532.03" stroke="hsl(246.10000000000002, 62.2%, 60.7%)" stroke-width="1.5"></path><path d="M1282.13 663.56L1004.62 656.29" stroke="hsl(246.10000000000002, 62.2%, 60.7%)" stroke-width="1.5"></path><path d="M1440.66 -86.79L1440.66 -86.79" stroke="hsl(246.10000000000002, 62.2%, 60.7%)" stroke-width="1.5"></path><path d="M1440.66 -86.79L1430.57 87.65" stroke="hsl(246.10000000000002, 62.2%, 60.7%)" stroke-width="1.5"></path><path d="M1430.57 87.65L1430.57 87.65" stroke="hsl(246.10000000000002, 62.2%, 60.7%)" stroke-width="1.5"></path><path d="M1430.57 87.65L1456.01 223.97" stroke="hsl(246.10000000000002, 62.2%, 60.7%)" stroke-width="1.5"></path><path d="M1430.57 87.65L1572.53 75.15" stroke="hsl(246.10000000000002, 62.2%, 60.7%)" stroke-width="1.5"></path><path d="M1456.01 223.97L1456.01 223.97" stroke="hsl(246.10000000000002, 62.2%, 60.7%)" stroke-width="1.5"></path><path d="M1456.01 223.97L1602.1 226.7" stroke="hsl(246.10000000000002, 62.2%, 60.7%)" stroke-width="1.5"></path><path d="M1435.76 388.42L1435.76 388.42" stroke="hsl(246.10000000000002, 62.2%, 60.7%)" stroke-width="1.5"></path><path d="M1435.76 388.42L1456.01 223.97" stroke="hsl(246.10000000000002, 62.2%, 60.7%)" stroke-width="1.5"></path><path d="M1435.76 388.42L1610.77 407.63" stroke="hsl(246.10000000000002, 62.2%, 60.7%)" stroke-width="1.5"></path><path d="M1435.76 388.42L1304.49 239.29" stroke="hsl(246.10000000000002, 62.2%, 60.7%)" stroke-width="1.5"></path><path d="M1435.76 388.42L1260.66 535.79" stroke="hsl(246.10000000000002, 62.2%, 60.7%)" stroke-width="1.5"></path><path d="M1572.53 75.15L1572.53 75.15" stroke="hsl(246.10000000000002, 62.2%, 60.7%)" stroke-width="1.5"></path><path d="M1572.53 75.15L1602.1 226.7" stroke="hsl(246.10000000000002, 62.2%, 60.7%)" stroke-width="1.5"></path><path d="M1572.53 75.15L1456.01 223.97" stroke="hsl(246.10000000000002, 62.2%, 60.7%)" stroke-width="1.5"></path><path d="M1602.1 226.7L1602.1 226.7" stroke="hsl(246.10000000000002, 62.2%, 60.7%)" stroke-width="1.5"></path><path d="M1610.77 407.63L1610.77 407.63" stroke="hsl(246.10000000000002, 62.2%, 60.7%)" stroke-width="1.5"></path><circle r="25" cx="82.79" cy="533.86" fill="url(#SvgjsRadialGradient1039)"></circle><circle r="25" cx="393.11" cy="554.72" fill="url(#SvgjsRadialGradient1039)"></circle><circle r="25" cx="1131.54" cy="348.36" fill="url(#SvgjsRadialGradient1039)"></circle><circle r="25" cx="1283.64" cy="-101.22" fill="url(#SvgjsRadialGradient1039)"></circle><circle r="25" cx="1260.66" cy="535.79" fill="url(#SvgjsRadialGradient1039)"></circle><circle r="25" cx="1440.81" cy="491.49" fill="url(#SvgjsRadialGradient1039)"></circle><circle r="25" cx="1588.54" cy="-55.46" fill="url(#SvgjsRadialGradient1039)"></circle><circle r="25" cx="1563.08" cy="703.34" fill="url(#SvgjsRadialGradient1039)"></circle><circle r="5" cx="-107.07" cy="501.21" fill="#9e96e0"></circle><circle r="5" cx="110.22" cy="704.99" fill="#9e96e0"></circle><circle r="5" cx="225.71" cy="509.28" fill="#9e96e0"></circle><circle r="5" cx="230.5" cy="689.79" fill="#9e96e0"></circle><circle r="5" cx="388.16" cy="708.69" fill="#9e96e0"></circle><circle r="5" cx="509.56" cy="555.35" fill="#9e96e0"></circle><circle r="5" cx="516.12" cy="664.62" fill="#9e96e0"></circle><circle r="5" cx="658.74" cy="378.45" fill="#9e96e0"></circle><circle r="5" cx="647.49" cy="502.65" fill="#9e96e0"></circle><circle r="5" cx="820.6" cy="520.87" fill="#9e96e0"></circle><circle r="5" cx="808.73" cy="707.86" fill="#9e96e0"></circle><circle r="5" cx="980.54" cy="362.72" fill="#9e96e0"></circle><circle r="5" cx="1004.62" cy="656.29" fill="#9e96e0"></circle><circle r="5" cx="1123" cy="249.25" fill="#9e96e0"></circle><circle r="5" cx="1095.09" cy="532.03" fill="#9e96e0"></circle><circle r="5" cx="1103.41" cy="668.24" fill="#9e96e0"></circle><circle r="5" cx="1299.76" cy="72.34" fill="#9e96e0"></circle><circle r="5" cx="1304.49" cy="239.29" fill="#9e96e0"></circle><circle r="5" cx="1309.15" cy="350.55" fill="#9e96e0"></circle><circle r="5" cx="1282.13" cy="663.56" fill="#9e96e0"></circle><circle r="5" cx="1440.66" cy="-86.79" fill="#9e96e0"></circle><circle r="5" cx="1430.57" cy="87.65" fill="#9e96e0"></circle><circle r="5" cx="1456.01" cy="223.97" fill="#9e96e0"></circle><circle r="5" cx="1435.76" cy="388.42" fill="#9e96e0"></circle><circle r="5" cx="1572.53" cy="75.15" fill="#9e96e0"></circle><circle r="5" cx="1602.1" cy="226.7" fill="#9e96e0"></circle><circle r="5" cx="1610.77" cy="407.63" fill="#9e96e0"></circle></g><defs><mask id="SvgjsMask1038"><rect width="1440" height="560" fill="#ffffff"></rect></mask><radialGradient id="SvgjsRadialGradient1039"><stop stop-color="#ffffff" offset="0.1"></stop><stop stop-color="rgba(60, 45, 193, 1)" offset="0.2"></stop><stop stop-color="rgba(60, 45, 193, 0)" offset="1"></stop></radialGradient></defs></svg>