<?xml version="1.0" standalone="no"?>
<svg xmlns:xlink="http://www.w3.org/1999/xlink" id="wave" style="transform:rotate(0deg); transition: 0.3s" viewBox="0 0 1440 490" version="1.1" xmlns="http://www.w3.org/2000/svg"><defs><linearGradient id="sw-gradient-0" x1="0" x2="0" y1="1" y2="0"><stop stop-color="rgba(243, 106, 62, 1)" offset="0%"/><stop stop-color="rgba(255, 179, 11, 1)" offset="100%"/></linearGradient></defs><path style="transform:translate(0, 0px); opacity:1" fill="url(#sw-gradient-0)" d="M0,245L60,228.7C120,212,240,180,360,179.7C480,180,600,212,720,261.3C840,310,960,376,1080,367.5C1200,359,1320,278,1440,236.8C1560,196,1680,196,1800,228.7C1920,261,2040,327,2160,302.2C2280,278,2400,163,2520,147C2640,131,2760,212,2880,277.7C3000,343,3120,392,3240,367.5C3360,343,3480,245,3600,204.2C3720,163,3840,180,3960,187.8C4080,196,4200,196,4320,204.2C4440,212,4560,229,4680,269.5C4800,310,4920,376,5040,375.7C5160,376,5280,310,5400,245C5520,180,5640,114,5760,147C5880,180,6000,310,6120,334.8C6240,359,6360,278,6480,245C6600,212,6720,229,6840,245C6960,261,7080,278,7200,277.7C7320,278,7440,261,7560,277.7C7680,294,7800,343,7920,318.5C8040,294,8160,196,8280,187.8C8400,180,8520,261,8580,302.2L8640,343L8640,490L8580,490C8520,490,8400,490,8280,490C8160,490,8040,490,7920,490C7800,490,7680,490,7560,490C7440,490,7320,490,7200,490C7080,490,6960,490,6840,490C6720,490,6600,490,6480,490C6360,490,6240,490,6120,490C6000,490,5880,490,5760,490C5640,490,5520,490,5400,490C5280,490,5160,490,5040,490C4920,490,4800,490,4680,490C4560,490,4440,490,4320,490C4200,490,4080,490,3960,490C3840,490,3720,490,3600,490C3480,490,3360,490,3240,490C3120,490,3000,490,2880,490C2760,490,2640,490,2520,490C2400,490,2280,490,2160,490C2040,490,1920,490,1800,490C1680,490,1560,490,1440,490C1320,490,1200,490,1080,490C960,490,840,490,720,490C600,490,480,490,360,490C240,490,120,490,60,490L0,490Z"/></svg>